<svg xmlns="http://www.w3.org/2000/svg" xmlns:xlink="http://www.w3.org/1999/xlink" width="420.812" height="360.819" viewBox="0 0 420.812 360.819">
<style>
  #Group_89 , #Sun , #Character , #Path_362 , #Path_355 {
    transform-origin: center;
    transform-box: fill-box;
  }
  #Sun{
    animation: spin 4s linear infinite;
  }
  #Group_89{
    animation: bounce-in-fwd 2s linear infinite reverse;
  }
  #Path_362 , #Path_355
  {
    animation: translateX 2s linear infinite;
  }
  #Character{
    animation: translateY 2s linear infinite;
  }
  @keyframes translateX {

    0%,
    100% {
      transform: translateX(2px);
    }

    50% {
      transform: translateX(-2px);
    }
  }
  @keyframes bounce-in-fwd {
    0% {
      transform: scale(1);
      animation-timing-function: ease-in;
      opacity: 1;
    }
    38% {
      transform: scale(1);
      animation-timing-function: ease-out;
      opacity: 1;
    }
    55% {
      transform: scale(0.7);
      animation-timing-function: ease-in;
    }
    72% {
      transform: scale(1);
      animation-timing-function: ease-out;
    }
    81% {
      transform: scale(0.84);
      animation-timing-function: ease-in;
    }
    89% {
      transform: scale(1);
      animation-timing-function: ease-out;
    }
    95% {
      transform: scale(0.95);
      animation-timing-function: ease-in;
    }
    100% {
      transform: scale(1);
      animation-timing-function: ease-out;
    }
  }
  @keyframes translateY {

    0%,
    100% {
      transform: translateY(2px);
    }

    50% {
      transform: translateY(-2px);
    }
}
  @keyframes spin {
    0% {
      -webkit-transform: rotate(0deg);
      -ms-transform: rotate(0deg);
      transform: rotate(0deg);
    }

    100% {
      -webkit-transform: rotate(360deg);
      -ms-transform: rotate(360deg);
      transform: rotate(360deg);
    }
  }
</style>
  <defs>
    <linearGradient id="linear-gradient" x1="0.015" y1="0.022" x2="1" y2="0.979" gradientUnits="objectBoundingBox">
      <stop offset="0" stop-color="#fdd301"/>
      <stop offset="1" stop-color="#fdd301" stop-opacity="0"/>
    </linearGradient>
    <linearGradient id="linear-gradient-3" x1="0.5" x2="0.5" y2="1" gradientUnits="objectBoundingBox">
      <stop offset="0" stop-color="#fdd301" stop-opacity="0.188"/>
      <stop offset="1" stop-color="#fdd301" stop-opacity="0"/>
    </linearGradient>
    <linearGradient id="linear-gradient-8" x2="0.518" y2="0.561" xlink:href="#linear-gradient-3"/>
    <linearGradient id="linear-gradient-12" x1="0.5" x2="0.5" y2="1" gradientUnits="objectBoundingBox">
      <stop offset="0" stop-color="#fdd301"/>
      <stop offset="1" stop-color="#fdd301"/>
    </linearGradient>
  </defs>
  <g id="Group_167" data-name="Group 167" transform="translate(-39.594 -54.953)">
    <g id="Background_Complete" data-name="Background Complete">
      <g id="Group_82" data-name="Group 82">
        <path id="Path_352" data-name="Path 352" d="M238.4,337.8H45.3a5.715,5.715,0,0,1-5.708-5.708V60.66A5.714,5.714,0,0,1,45.3,54.953H238.4a5.714,5.714,0,0,1,5.707,5.707V332.092A5.715,5.715,0,0,1,238.4,337.8ZM45.3,55.2a5.463,5.463,0,0,0-5.458,5.457V332.092A5.464,5.464,0,0,0,45.3,337.55H238.4a5.463,5.463,0,0,0,5.457-5.458V60.66A5.463,5.463,0,0,0,238.4,55.2Z" fill="url(#linear-gradient)"/>
        <g id="Group_81" data-name="Group 81">
          <path id="Path_353" data-name="Path 353" d="M454.7,337.8H261.6a5.715,5.715,0,0,1-5.707-5.708V60.66a5.714,5.714,0,0,1,5.707-5.707H454.7a5.714,5.714,0,0,1,5.708,5.707V332.092A5.715,5.715,0,0,1,454.7,337.8ZM261.6,55.2a5.463,5.463,0,0,0-5.457,5.457V332.092a5.463,5.463,0,0,0,5.457,5.458H454.7a5.464,5.464,0,0,0,5.458-5.458V60.66A5.463,5.463,0,0,0,454.7,55.2Z" fill="url(#linear-gradient)"/>
        </g>
      </g>
      <rect id="Rectangle_9" data-name="Rectangle 9" width="93.676" height="0.25" transform="translate(131.471 395.111)" fill="#ebebeb"/>
      <g id="Group_87" data-name="Group 87">
        <path id="Path_354" data-name="Path 354" d="M154.367,158.677c12.295.033,46.769,5.036,46.769-13.482,0-15.735-16.848-14.577-16.848-14.577s.486-13.633-14.525-15.445c-15.4-1.86-17.72,12.871-17.72,12.871s-26.726-9.38-22.659,14.158c0,0-14.815-2.616-14.815,7.98C114.569,162.024,142.457,158.646,154.367,158.677Z" fill="url(#linear-gradient-3)"/>
        <g id="Group_83" data-name="Group 83">
          <path id="Path_355" data-name="Path 355" d="M138.876,298.708c24.956.074,94.929,11.535,94.929-30.881,0-36.04-34.2-33.388-34.2-33.388s.988-31.225-29.481-35.377c-31.25-4.259-35.967,29.481-35.967,29.481s-54.245-21.484-45.99,32.429c0,0-30.071-5.993-30.071,18.278C58.1,306.373,114.7,298.635,138.876,298.708Z" fill="url(#linear-gradient-3)"/>
          <path id="Path_356" data-name="Path 356" d="M232.1,302.462c-13.806.041-52.516,6.381-52.516-17.084,0-19.938,18.919-18.471,18.919-18.471s-.547-17.274,16.309-19.57c17.288-2.356,19.9,16.309,19.9,16.309s30.009-11.885,25.443,17.94c0,0,16.635-3.316,16.635,10.112C276.782,306.7,245.468,302.422,232.1,302.462Z" fill="url(#linear-gradient-3)"/>
        </g>
        <path id="Path_357" data-name="Path 357" d="M309.146,204.159c13.77.035,52.379,5.315,52.379-14.227,0-16.605-18.87-15.383-18.87-15.383s.546-14.387-16.266-16.3c-17.243-1.962-19.846,13.583-19.846,13.583s-29.931-9.9-25.376,14.941c0,0-16.592-2.761-16.592,8.422C264.575,207.691,295.807,204.126,309.146,204.159Z" fill="url(#linear-gradient-3)"/>
        <g id="Group_86" data-name="Group 86">
          <g id="Group_85" data-name="Group 85">
            <g id="Group_84" data-name="Group 84">
              <path id="Path_358" data-name="Path 358" d="M268.09,382.282l20.122-130.456,59.841-75.55,20.4-86.04s49.453,47.788,50.825,49.042S431.538,269.52,433.05,271.489s15.721,24.462,15.721,24.462l6.61,85.937Z" fill="url(#linear-gradient-3)"/>
              <path id="Path_359" data-name="Path 359" d="M268.09,382.282l28.678-112.725L337.4,230.823l7.608,49.028,10.234-55.77L366.867,243.1l-2.523-65.56,2.018-20.975,6.819,13.924-4.727-80.248,34.478.8,7.177,37.878,9.171,10.367L433.05,271.489l15.72,24.462,6.611,85.937Z" fill="url(#linear-gradient-8)"/>
              <path id="Path_360" data-name="Path 360" d="M369.355,90.671l20.48,66.268,12.2,9.7s6.436,26.935,6.363,25.212-.74-31.9-.74-31.9l3.16-24.623-7.974-43.859Z" fill="url(#linear-gradient-3)"/>
            </g>
            <path id="Path_361" data-name="Path 361" d="M433.05,271.489l4.779,22.279,10.941,2.183Z" fill="url(#linear-gradient-3)"/>
          </g>
        </g>
      </g>
      <path id="Path_362" data-name="Path 362" d="M356.064,337.439c21.872.066,83.2,10.11,83.2-27.066,0-31.586-29.972-29.262-29.972-29.262s.866-27.367-25.839-31.006c-27.388-3.732-31.523,25.839-31.523,25.839s-47.542-18.83-40.307,28.422c0,0-26.356-5.253-26.356,16.02C285.266,344.157,334.876,337.376,356.064,337.439Z" fill="url(#linear-gradient-3)"/>
    </g>
    <g id="Coin">
      <g id="Group_91" data-name="Group 91">
        <g id="Group_89" data-name="Group 89">
          <g id="Group_88" data-name="Group 88">
            <path id="Path_363" data-name="Path 363" d="M403.35,95.08a17.489,17.489,0,0,1-17.49,17.49c-.39,0-.78-.01-1.17-.04a17.49,17.49,0,0,1,0-34.9c.39-.03.78-.04,1.17-.04A17.489,17.489,0,0,1,403.35,95.08Z" fill="#fdd301"/>
          </g>
          <path id="Path_364" data-name="Path 364" d="M401.01,95.08a16.352,16.352,0,1,1-16.32-17.45A17.489,17.489,0,0,1,401.01,95.08Z" fill="#292929"/>
          <circle id="Ellipse_1" data-name="Ellipse 1" cx="13.085" cy="13.085" r="13.085" transform="translate(367.558 102.161) rotate(-67.5)" fill="#fdd301" opacity="0.4"/>
        </g>
        <g id="Group_90" data-name="Group 90" opacity="0.7">
          <path id="Path_365" data-name="Path 365" d="M390.671,97.864c.506,2.893-1.482,4.828-5.062,5.132l-.059,2.393h-2.175l.059-2.393a12.079,12.079,0,0,1-5.295-1.675l.985-2.7a9.97,9.97,0,0,0,4.381,1.545l.1-3.676c-2.129-.609-4.489-1.413-4.95-4.046-.506-2.892,1.523-4.849,5.174-5.111l.06-2.393h2.175l-.056,2.415a10.9,10.9,0,0,1,4.219,1.24l-.854,2.7a8.435,8.435,0,0,0-3.439-1.131l-.091,3.828C387.943,94.579,390.233,95.362,390.671,97.864Zm-7.005-4.481.083-3.132c-1.2.239-1.776.913-1.653,1.74C382.215,92.665,382.826,93.056,383.666,93.383Zm3.58,5.046c-.11-.631-.679-1.023-1.489-1.305l-.066,2.979C386.823,99.864,387.391,99.256,387.246,98.429Z" fill="#fff"/>
        </g>
      </g>
    </g>
    <g id="Metric">
      <g id="Group_96" data-name="Group 96">
        <g id="Group_92" data-name="Group 92">
          <rect id="Rectangle_11" data-name="Rectangle 11" width="59.17" height="160.031" transform="translate(239.695 255.71)" fill="url(#linear-gradient-12)"/>
          <rect id="Rectangle_12" data-name="Rectangle 12" width="16.72" height="160.218" transform="translate(239.68 255.555)" opacity="0.2"/>
        </g>
        <g id="Group_93" data-name="Group 93">
          <rect id="Rectangle_13" data-name="Rectangle 13" width="59.17" height="96.03" transform="translate(180.446 319.71)" fill="#fdd301"/>
          <rect id="Rectangle_14" data-name="Rectangle 14" width="17.78" height="95.93" transform="translate(180.446 319.71)" opacity="0.2"/>
        </g>
        <g id="Group_94" data-name="Group 94">
          <rect id="Rectangle_15" data-name="Rectangle 15" width="59.17" height="75.64" transform="translate(121.23 340.1)" fill="#fdd301"/>
          <rect id="Rectangle_16" data-name="Rectangle 16" width="17.6" height="75.54" transform="translate(121.23 340.1)" opacity="0.2"/>
        </g>
        <g id="Group_95" data-name="Group 95">
          <rect id="Rectangle_17" data-name="Rectangle 17" width="59.168" height="55.248" transform="translate(62.044 360.494)" fill="#fdd301"/>
          <rect id="Rectangle_18" data-name="Rectangle 18" width="16.72" height="55.2" transform="translate(62.046 360.439)" opacity="0.2"/>
        </g>
      </g>
    </g>
    <g id="Character">
      <g id="Group_137" data-name="Group 137">
        <g id="Group_136" data-name="Group 136">
          <g id="Group_100" data-name="Group 100">
            <path id="Path_366" data-name="Path 366" d="M222.918,132.081c-2.811,3.4-5.7,6.726-8.6,10.049l-2.188,2.478-1.964,2.19a6.845,6.845,0,0,0-1.529,3.453l-.66,6.455c-.221,2.189-.433,4.379-.69,6.567-.484,4.377-.986,8.753-1.574,13.125a2.8,2.8,0,0,1-5.57-.212c-.253-4.4-.421-8.8-.57-13.19-.09-2.2-.134-4.394-.189-6.591l-.149-6.7a16.217,16.217,0,0,1,2.822-8.785l2.177-2.928,1.973-2.622c2.653-3.479,5.309-6.952,8.048-10.356a5.591,5.591,0,0,1,8.712,7.01Z" fill="#fdd301"/>
            <g id="Group_97" data-name="Group 97">
              <path id="Union_1" data-name="Union 1" d="M-522.022-352.627l-.384-2.2,8.414.853-1.064,2.005a2.267,2.267,0,0,1-1.993,1.2l-2.74.007h-.006A2.261,2.261,0,0,1-522.022-352.627Zm-.384-2.2,3.655-6.206a6.84,6.84,0,0,1,5.18-.869,1.335,1.335,0,0,1,1.059,1.628l-1.481,6.3Z" transform="translate(718.2 537.72)" fill="#fda57d" stroke="rgba(0,0,0,0)" stroke-miterlimit="10" stroke-width="1"/>
            </g>
            <g id="Group_99" data-name="Group 99">
              <g id="Group_98" data-name="Group 98">
                <path id="Path_369" data-name="Path 369" d="M198.854,172.04l8.1.277-.523,4.838-6.84-.528Z" fill="#407bff"/>
              </g>
              <path id="Path_370" data-name="Path 370" d="M198.854,172.04l8.1.277-.523,4.838-6.84-.528Z" fill="#131313"/>
            </g>
          </g>
          <g id="Group_135" data-name="Group 135">
            <g id="Group_130" data-name="Group 130">
              <g id="Group_110" data-name="Group 110">
                <path id="Path_383" data-name="Path 383" d="M239.941,96.992c.318-.061.658.272.761.754s-.063.934-.382.995-.658-.272-.761-.754C239.43,97.489,239.622,97.053,239.941,96.992Z" fill="#263238"/>
                <path id="Path_384" data-name="Path 384" d="M240,97.4a1.613,1.613,0,0,0,.755-.827,1.494,1.494,0,0,1-1.043.4A.582.582,0,0,1,240,97.4Z" fill="#263238"/>
                <path id="Path_385" data-name="Path 385" d="M240.636,102.29a2.844,2.844,0,0,0,2.218-.925,17.822,17.822,0,0,1-3.192-3.643Z" fill="#fda57d"/>
                <path id="Path_386" data-name="Path 386" d="M237.263,96.2a2.3,2.3,0,0,1,1.921-.864h0a.283.283,0,0,0,.1.014.295.295,0,1,0-.012-.589,2.874,2.874,0,0,0-2.433,1.015.3.3,0,0,0,.224.487A.289.289,0,0,0,237.263,96.2Z" fill="#263238"/>
                <path id="Path_387" data-name="Path 387" d="M234.218,125.1c-8.319.09-9.594-4.439-9.594-4.439,2.472-2.426,2.6-6.865,2.069-10.824a9.288,9.288,0,0,0,2.471,2.371c1.991,1.308,6.307-.794,6.307-.794s0,.738.056,1.8c.134,2.594.7,7.145,3.064,7.85C238.591,121.067,243.388,125,234.218,125.1Z" fill="#fda57d"/>
                <path id="Path_388" data-name="Path 388" d="M235.593,112.091c-.088.383-.176.765-.23,1.17a.179.179,0,0,1-.1.036,7.591,7.591,0,0,1-6.093-1.09,9.149,9.149,0,0,1-2.476-2.366c-.126-1.005-.31-1.986-.494-2.885l9.059,4.954Z" fill="#cb7a63"/>
                <g id="Group_108" data-name="Group 108">
                  <path id="Path_389" data-name="Path 389" d="M241.554,105.3a8.44,8.44,0,0,1-4.1,7.084h-.012a.04.04,0,0,1-.034.012,6.955,6.955,0,0,1-2.049.866.179.179,0,0,1-.1.036,7.591,7.591,0,0,1-6.093-1.09,9.149,9.149,0,0,1-2.476-2.366c-1.631-2.237-2.31-5.224-3.478-9.419a8.3,8.3,0,0,1,9.447-10.495C238.984,91.05,241.679,99.679,241.554,105.3Z" fill="#fda57d"/>
                  <path id="Path_390" data-name="Path 390" d="M237,112.546a4.359,4.359,0,0,1-1.476.671c-.056-1.062-.045-1.8-.056-1.8.056-.928.123-1.856.123-1.856C235.594,109.594,236.567,112.546,237,112.546Z" opacity="0.2"/>
                </g>
                <path id="Path_391" data-name="Path 391" d="M239.369,93.954c-.677,1.077-2.809,1.987-2.737,1.737.367-.894.3-2.608-.808-2.206.306.683,1.224,5.818.808,6.44-.227.341-.443,4.449-2.192,8.071-1.4,2.89-1.4,3.786-1.4,3.786l-5.679,1.1c-2.126-.265-4.106-2.982-4.281-3.282-.742-1.277-3.01-2.954-4.19-3.842a3.4,3.4,0,0,1-1.126-1.554c-.389-1.09.406-5.018.58-6.865.249-2.657,1.644-5.115,5.5-6.694,2.383-.976,4.388-3.117,6.82-3.964a8.007,8.007,0,0,1,7.378.745C239.053,88.185,241.066,91.257,239.369,93.954Z" fill="#292929"/>
                <path id="Path_392" data-name="Path 392" d="M236.4,97.694c1.75.513,2.662,3.091,2.737,4.729.086,1.808-1.122,2.952-2.7,1.74a6.9,6.9,0,0,1-2.415-3.692C233.6,98.7,234.652,97.181,236.4,97.694Z" fill="#fda57d"/>
                <g id="Group_109" data-name="Group 109">
                  <path id="Path_393" data-name="Path 393" d="M238.506,103.718a.764.764,0,1,1-.764-.764A.764.764,0,0,1,238.506,103.718Z" fill="#ee956c"/>
                  <path id="Path_394" data-name="Path 394" d="M238.506,103.718a.764.764,0,1,1-.764-.764A.764.764,0,0,1,238.506,103.718Z" fill="#ee956c" opacity="0.3"/>
                </g>
              </g>
              <g id="_Group_" data-name="&lt;Group&gt;">
                <g id="Group_116" data-name="Group 116">
                  <path id="Path_395" data-name="Path 395" d="M222.236,123.663s1.293-3.989,3.242-5.249,10.509.047,11.851.572,2.694,3.616,2.694,3.616Z" fill="#407bff"/>
                  <path id="Path_396" data-name="Path 396" d="M222.236,123.663s1.293-3.989,3.242-5.249,10.509.047,11.851.572,2.694,3.616,2.694,3.616Z" fill="#131313"/>
                  <g id="Group_115" data-name="Group 115">
                    <g id="Group_112" data-name="Group 112">
                      <path id="Path_397" data-name="Path 397" d="M241.781,121.959a27.481,27.481,0,0,0-3.224-.54,119.325,119.325,0,0,0-13.781.149,30.062,30.062,0,0,0-4.885.827,6.891,6.891,0,0,0-5.256,7.195c.682,9.362,3.449,14.855,3.857,21.018a100.069,100.069,0,0,1-1.479,23.754l6.3.956a63.688,63.688,0,0,0,24.9-5.316h0s-1.622-14.845-.054-20.194c4.284-14.614,1.5-16.926.658-21.11A8.572,8.572,0,0,0,241.781,121.959Z" fill="#407bff"/>
                      <g id="Group_111" data-name="Group 111">
                        <path id="Path_398" data-name="Path 398" d="M248.151,149.8a29.475,29.475,0,0,0-.682,7.4c0,6.038.738,12.792.738,12.792a63.553,63.553,0,0,1-24.9,5.322l-6.295-.961a100.3,100.3,0,0,0,1.487-23.75c-.414-6.161-3.175-11.651-3.858-21.022a6.877,6.877,0,0,1,5.256-7.19,29.574,29.574,0,0,1,4.886-.827,120.587,120.587,0,0,1,13.776-.157,27.206,27.206,0,0,1,3.22.548,8.562,8.562,0,0,1,7.033,6.743c.3,1.5.862,2.762,1.242,4.439a21.953,21.953,0,0,1-.09,9.124A68.924,68.924,0,0,1,248.151,149.8Z" fill="#fdd301"/>
                      </g>
                    </g>
                    <g id="Group_113" data-name="Group 113">
                      <path id="Path_399" data-name="Path 399" d="M243.591,121.506c2.3.324,4.575.782,6.863,1.169,2.28.439,4.558.891,6.83,1.38l-.823-.065c1.014.045,1.906.124,2.469.159.271.02.463.014.391.056-.014.024-.147.066-.3.166a2.87,2.87,0,0,0-.683.532,2.461,2.461,0,0,0-.719,1.436c0,.228.068.174.08,0a6.872,6.872,0,0,0-.187-1.761l.1.3c-1.153-3.328-2.248-6.679-3.251-10.067-.973-3.4-1.908-6.812-2.572-10.333a2.49,2.49,0,0,1,4.556-1.785c1.905,3.034,3.539,6.174,5.134,9.329,1.565,3.167,3.038,6.37,4.454,9.6l.1.3a16.765,16.765,0,0,1,.992,3.535,8.931,8.931,0,0,1,.011,2.706,6.96,6.96,0,0,1-1.935,3.817,7.291,7.291,0,0,1-1.8,1.3,8.785,8.785,0,0,1-1.583.611,13.071,13.071,0,0,1-2.3.4c-1.249.117-2.169.123-2.966.17l-.128.008-.7-.073c-2.311-.242-4.617-.52-6.92-.811-2.295-.345-4.6-.617-6.887-1.024a5.592,5.592,0,0,1,1.761-11.042Z" fill="#407bff"/>
                    </g>
                    <g id="Group_114" data-name="Group 114">
                      <path id="Path_400" data-name="Path 400" d="M243.591,121.506c2.3.324,4.575.782,6.863,1.169,2.28.439,4.558.891,6.83,1.38l-.823-.065c1.014.045,1.906.124,2.469.159.271.02.463.014.391.056-.014.024-.147.066-.3.166a2.87,2.87,0,0,0-.683.532,2.461,2.461,0,0,0-.719,1.436c0,.228.068.174.08,0a6.872,6.872,0,0,0-.187-1.761l.1.3c-1.153-3.328-2.248-6.679-3.251-10.067-.973-3.4-1.908-6.812-2.572-10.333a2.49,2.49,0,0,1,4.556-1.785c1.905,3.034,3.539,6.174,5.134,9.329,1.565,3.167,3.038,6.37,4.454,9.6l.1.3a16.765,16.765,0,0,1,.992,3.535,8.931,8.931,0,0,1,.011,2.706,6.96,6.96,0,0,1-1.935,3.817,7.291,7.291,0,0,1-1.8,1.3,8.785,8.785,0,0,1-1.583.611,13.071,13.071,0,0,1-2.3.4c-1.249.117-2.169.123-2.966.17l-.128.008-.7-.073c-2.311-.242-4.617-.52-6.92-.811-2.295-.345-4.6-.617-6.887-1.024a5.592,5.592,0,0,1,1.761-11.042Z" fill="#fdd301"/>
                    </g>
                  </g>
                </g>
              </g>
              <g id="Group_129" data-name="Group 129">
                <g id="Group_127" data-name="Group 127">
                  <g id="Group_125" data-name="Group 125">
                    <g id="Group_123" data-name="Group 123">
                      <path id="Path_401" data-name="Path 401" d="M284.943,99.978l29.982-.919-.46-9.392-29.921,1.971Z" fill="#292929"/>
                      <path id="Path_402" data-name="Path 402" d="M262.282,100.338l24.244-.781-.37-7.7-24.2,1.561Z" fill="#292929"/>
                      <path id="Path_403" data-name="Path 403" d="M283.325,99.755l1.589.169-.394-8.229-1.565.32Z" fill="#263238"/>
                      <path id="Path_404" data-name="Path 404" d="M283.325,99.755l1.589.169-.394-8.229-1.565.32Z" opacity="0.2"/>
                      <path id="Path_405" data-name="Path 405" d="M284.916,99.979l1.628-.05-.4-8.4-1.624.107Z" fill="#fdd301"/>
                      <path id="Path_406" data-name="Path 406" d="M258.518,99.2l2.406,1.117-.318-6.747-2.29,1.343Z" fill="#263238"/>
                      <g id="Group_117" data-name="Group 117">
                        <path id="Path_407" data-name="Path 407" d="M246.2,99.116l7.129-.371-.148-3.158-7.126.426Z" fill="#263238"/>
                        <path id="Path_408" data-name="Path 408" d="M246.2,99.116l7.129-.371-.148-3.158-7.126.426Z" fill="#fdd301" opacity="0.2"/>
                      </g>
                      <path id="Path_409" data-name="Path 409" d="M252.352,99.383l7.932-.3-.208-4.421-7.923.469Z" fill="#263238"/>
                      <path id="Path_410" data-name="Path 410" d="M258.518,99.2l2.406,1.117-.318-6.747-2.29,1.343Z" opacity="0.2"/>
                      <path id="Path_411" data-name="Path 411" d="M260.967,100.381l1.315-.042-.326-6.921-1.313.085Z" fill="#fdd301"/>
                      <path id="Path_412" data-name="Path 412" d="M313.9,99.09l4.7-.168-.462-9.429-4.7.24Z" fill="#fdd301"/>
                      <g id="Group_118" data-name="Group 118">
                        <path id="Path_413" data-name="Path 413" d="M315.989,99.757l6-.167.15-.415a13.619,13.619,0,0,0-.7-10.849h0l-5.986.414.131.314a15.3,15.3,0,0,1,.409,10.7Z" fill="#292929"/>
                      </g>
                      <g id="Group_122" data-name="Group 122">
                        <g id="Group_119" data-name="Group 119" opacity="0.4">
                          <path id="Path_414" data-name="Path 414" d="M309.6,90.709l2.427-.15.049,1.034-2.465.143A4.055,4.055,0,0,1,309.6,90.709Z" fill="#fdd301"/>
                          <path id="Path_415" data-name="Path 415" d="M308.13,90.824a4.412,4.412,0,0,0,.011,1.021L287.1,93.037l-.05-.935Z" fill="#fdd301"/>
                        </g>
                        <g id="Group_120" data-name="Group 120" opacity="0.4">
                          <path id="Path_416" data-name="Path 416" d="M262.469,93.964l.044.84,19.773-1.174-.043-.918Z" fill="#fdd301"/>
                        </g>
                        <g id="Group_121" data-name="Group 121" opacity="0.4">
                          <path id="Path_417" data-name="Path 417" d="M315.978,89.064l.059,1.048,4.69-.31-.051-1.069Z" fill="#fdd301"/>
                        </g>
                      </g>
                    </g>
                    <g id="Group_124" data-name="Group 124">
                      <path id="Path_418" data-name="Path 418" d="M321.383,98.2a4.461,4.461,0,0,0,.01,1.071l-4.857.166-.059-1.049Z" opacity="0.3" style="isolation: isolate"/>
                      <path id="Path_419" data-name="Path 419" d="M312.686,97.619a4.392,4.392,0,0,0,.01,1.038l-25.742.92-.051-.934Z" opacity="0.3" style="isolation: isolate"/>
                      <path id="Path_420" data-name="Path 420" d="M282.049,98.523a4.467,4.467,0,0,0,.012.918l-19.127.672-.044-.84Z" opacity="0.3" style="isolation: isolate"/>
                    </g>
                  </g>
                  <g id="Group_126" data-name="Group 126">
                    <path id="Path_421" data-name="Path 421" d="M244.6,96.133l.062,3.02a.983.983,0,0,0,1.041.912l2.451-.041-.1-4.948-2.45.09A1,1,0,0,0,244.6,96.133Z" fill="#292929"/>
                  </g>
                </g>
                <path id="Path_422" data-name="Path 422" d="M257.265,104.511l.931-5.629a2.835,2.835,0,0,0,.026-.707l-.267-2.982a1.071,1.071,0,0,0-.735-.9l-4.5-.052a1.163,1.163,0,0,0-1.442.626l-.807,3.687a1.777,1.777,0,0,0,.017.836l1.334,5.077a1.286,1.286,0,0,0,1,.847l2.938.026A1.247,1.247,0,0,0,257.265,104.511Z" fill="#fda57d"/>
                <g id="Group_128" data-name="Group 128">
                  <path id="Path_423" data-name="Path 423" d="M259.909,106.882l-7.645,2.689-1.273-4.7,6.564-2Z" fill="#407bff"/>
                  <path id="Path_424" data-name="Path 424" d="M259.909,106.882l-7.645,2.689-1.273-4.7,6.564-2Z" fill="#131313"/>
                </g>
              </g>
              <path id="Path_425" data-name="Path 425" d="M249.962,142.267,244.1,131.209l5.949,1.934A21.953,21.953,0,0,1,249.962,142.267Z" fill="#fdd301"/>
            </g>
            <g id="Group_134" data-name="Group 134">
              <path id="Path_426" data-name="Path 426" d="M280.167,234.075,278.955,249.1l6.837.13,1.876-15.474Z" fill="#fda57d"/>
              <g id="Group_131" data-name="Group 131">
                <path id="Path_427" data-name="Path 427" d="M286.874,247.174l-7.8.158a.647.647,0,0,0-.608.539l-1.343,6.839a1.114,1.114,0,0,0,.8,1.328,1.016,1.016,0,0,0,.22.024c2.811-.109,5.309-.325,8.809-.391,4.131-.082,3.088.469,7.945.445,2.926-.017,3.426-3.6,2.184-3.749-5.686-.653-6.293-2.481-8.5-4.619A2.386,2.386,0,0,0,286.874,247.174Z" fill="#263238"/>
              </g>
              <g id="Group_133" data-name="Group 133">
                <path id="Path_428" data-name="Path 428" d="M205.509,298.446l-2.765,13.8,7.351,2.245,3.54-14.091Z" fill="#fda57d"/>
                <path id="Path_429" data-name="Path 429" d="M244.84,170.6s-10.463,61.064-16.146,79.035c-4.047,12.795-14.9,54.659-14.9,54.659l-9.846-2.183s-1.1-28.495,4.375-43.2c1.868-5.017,4.306-9.545,4.966-12.656,2.82-13.291-2.992-37.4-.423-55.387a73.025,73.025,0,0,1,4.368-16.7Z" fill="#292929"/>
                <path id="Path_430" data-name="Path 430" d="M228.694,249.639c-4.047,12.795-14.9,54.659-14.9,54.659l-9.846-2.183s-1.1-28.495,4.375-43.2c1.868-5.017,4.306-9.545,4.966-12.656,2.82-13.291-2.992-37.4-.423-55.387a73.025,73.025,0,0,1,4.368-16.7" fill="#292929"/>
                <path id="Path_431" data-name="Path 431" d="M232.011,189.479l5.267,20.682,3.854-19.783Z" opacity="0.2" style="isolation: isolate"/>
                <path id="Path_432" data-name="Path 432" d="M288.148,241.28l-9.62.31s.71-12.59.71-30.95a34.051,34.051,0,0,1,1.06-8.12,46.776,46.776,0,0,1,3.59-9.79s-1.03.06-2.79.14c-5.441.28-39.163,2.022-39.823,1.972-.5-.05-3.564.356-9.058-2.322-10.208-4.977-10.31-18.95-10.31-18.95L248.2,170c0,.02.431.08,6.761.19,19.19.33,42.772,1.073,46.911,7.661C307.691,187.119,288.148,241.28,288.148,241.28Z" fill="#292929"/>
                <g id="Group_132" data-name="Group 132">
                  <path id="Path_433" data-name="Path 433" d="M210.463,310.916l-8.067.109a.615.615,0,0,0-.6.54l-1,6.895a1.2,1.2,0,0,0,.9,1.345,1.051,1.051,0,0,0,.229.026c2.9-.092,5.48-.294,9.1-.338,4.273-.056,3.224.494,8.252.5,3.029,0,3.345-3.611,2.05-3.771-5.924-.695-6.657-2.545-9.069-4.717A2.639,2.639,0,0,0,210.463,310.916Z" fill="#263238"/>
                </g>
              </g>
            </g>
          </g>
        </g>
        <path id="Path_434" data-name="Path 434" d="M280.3,202.52a46.776,46.776,0,0,1,3.59-9.79s-1.03.06-2.79.14a.712.712,0,0,0-.26-.05l7.012-.59Z" opacity="0.2" style="isolation: isolate"/>
      </g>
    </g>
    <g id="Sun">
      <g id="Group_166" data-name="Group 166">
        <g id="Group_139" data-name="Group 139">
          <g id="Group_138" data-name="Group 138">
            <circle id="Ellipse_2" data-name="Ellipse 2" cx="12.266" cy="12.266" r="12.266" transform="translate(84.276 103.226)" fill="#fdd301"/>
            <circle id="Ellipse_3" data-name="Ellipse 3" cx="12.266" cy="12.266" r="12.266" transform="translate(84.276 103.226)" fill="#fdd301" opacity="0.6"/>
          </g>
        </g>
        <g id="Group_152" data-name="Group 152">
          <g id="Group_142" data-name="Group 142">
            <g id="Group_140" data-name="Group 140">
              <path id="Path_435" data-name="Path 435" d="M96.564,98.549a1.824,1.824,0,0,1-1.824-1.824V88.67a1.824,1.824,0,0,1,3.648,0v8.055A1.824,1.824,0,0,1,96.564,98.549Z" fill="#fdd301"/>
            </g>
            <g id="Group_141" data-name="Group 141">
              <path id="Path_436" data-name="Path 436" d="M96.564,143.95a1.824,1.824,0,0,1-1.824-1.824v-8.055a1.824,1.824,0,1,1,3.648,0v8.055A1.824,1.824,0,0,1,96.564,143.95Z" fill="#fdd301"/>
            </g>
          </g>
          <g id="Group_145" data-name="Group 145">
            <g id="Group_143" data-name="Group 143">
              <path id="Path_437" data-name="Path 437" d="M83.36,104.018a1.819,1.819,0,0,1-1.29-.534L78.589,100a1.824,1.824,0,1,1,2.579-2.58L84.65,100.9a1.823,1.823,0,0,1-1.29,3.113Z" fill="#fdd301"/>
            </g>
            <g id="Group_144" data-name="Group 144">
              <path id="Path_438" data-name="Path 438" d="M113.014,133.672a1.821,1.821,0,0,1-1.29-.535l-3.246-3.246a1.824,1.824,0,0,1,2.579-2.579l3.246,3.246a1.825,1.825,0,0,1-1.289,3.114Z" fill="#fdd301"/>
            </g>
          </g>
          <g id="Group_148" data-name="Group 148">
            <g id="Group_146" data-name="Group 146">
              <path id="Path_439" data-name="Path 439" d="M77.891,117.222H69.836a1.824,1.824,0,0,1,0-3.648h8.055a1.824,1.824,0,0,1,0,3.648Z" fill="#fdd301"/>
            </g>
            <g id="Group_147" data-name="Group 147">
              <path id="Path_440" data-name="Path 440" d="M123.292,117.222h-8.055a1.824,1.824,0,0,1,0-3.648h8.055a1.824,1.824,0,0,1,0,3.648Z" fill="#fdd301"/>
            </g>
          </g>
          <g id="Group_151" data-name="Group 151">
            <g id="Group_149" data-name="Group 149">
              <path id="Path_441" data-name="Path 441" d="M80.29,133.5A1.825,1.825,0,0,1,79,130.382l3.069-3.07a1.824,1.824,0,0,1,2.58,2.579l-3.07,3.07A1.816,1.816,0,0,1,80.29,133.5Z" fill="#fdd301"/>
            </g>
            <g id="Group_150" data-name="Group 150">
              <path id="Path_442" data-name="Path 442" d="M109.768,104.018a1.823,1.823,0,0,1-1.29-3.113l3.292-3.292a1.824,1.824,0,1,1,2.579,2.579l-3.292,3.292A1.816,1.816,0,0,1,109.768,104.018Z" fill="#fdd301"/>
            </g>
          </g>
        </g>
        <g id="Group_165" data-name="Group 165" opacity="0.6">
          <g id="Group_155" data-name="Group 155">
            <g id="Group_153" data-name="Group 153">
              <path id="Path_443" data-name="Path 443" d="M96.564,98.549a1.824,1.824,0,0,1-1.824-1.824V88.67a1.824,1.824,0,0,1,3.648,0v8.055A1.824,1.824,0,0,1,96.564,98.549Z" fill="#fdd301"/>
            </g>
            <g id="Group_154" data-name="Group 154">
              <path id="Path_444" data-name="Path 444" d="M96.564,143.95a1.824,1.824,0,0,1-1.824-1.824v-8.055a1.824,1.824,0,1,1,3.648,0v8.055A1.824,1.824,0,0,1,96.564,143.95Z" fill="#fdd301"/>
            </g>
          </g>
          <g id="Group_158" data-name="Group 158">
            <g id="Group_156" data-name="Group 156">
              <path id="Path_445" data-name="Path 445" d="M83.36,104.018a1.819,1.819,0,0,1-1.29-.534L78.589,100a1.824,1.824,0,1,1,2.579-2.58L84.65,100.9a1.823,1.823,0,0,1-1.29,3.113Z" fill="#fdd301"/>
            </g>
            <g id="Group_157" data-name="Group 157">
              <path id="Path_446" data-name="Path 446" d="M113.014,133.672a1.821,1.821,0,0,1-1.29-.535l-3.246-3.246a1.824,1.824,0,0,1,2.579-2.579l3.246,3.246a1.825,1.825,0,0,1-1.289,3.114Z" fill="#fdd301"/>
            </g>
          </g>
          <g id="Group_161" data-name="Group 161">
            <g id="Group_159" data-name="Group 159">
              <path id="Path_447" data-name="Path 447" d="M77.891,117.222H69.836a1.824,1.824,0,0,1,0-3.648h8.055a1.824,1.824,0,0,1,0,3.648Z" fill="#fdd301"/>
            </g>
            <g id="Group_160" data-name="Group 160">
              <path id="Path_448" data-name="Path 448" d="M123.292,117.222h-8.055a1.824,1.824,0,0,1,0-3.648h8.055a1.824,1.824,0,0,1,0,3.648Z" fill="#fdd301"/>
            </g>
          </g>
          <g id="Group_164" data-name="Group 164">
            <g id="Group_162" data-name="Group 162">
              <path id="Path_449" data-name="Path 449" d="M80.29,133.5A1.825,1.825,0,0,1,79,130.382l3.069-3.07a1.824,1.824,0,0,1,2.58,2.579l-3.07,3.07A1.816,1.816,0,0,1,80.29,133.5Z" fill="#fdd301"/>
            </g>
            <g id="Group_163" data-name="Group 163">
              <path id="Path_450" data-name="Path 450" d="M109.768,104.018a1.823,1.823,0,0,1-1.29-3.113l3.292-3.292a1.824,1.824,0,1,1,2.579,2.579l-3.292,3.292A1.816,1.816,0,0,1,109.768,104.018Z" fill="#fdd301"/>
            </g>
          </g>
        </g>
      </g>
    </g>
  </g>
</svg>
