<svg xmlns="http://www.w3.org/2000/svg" width="26" height="26" viewBox="0 0 26 26">
  <path id="Path_350" data-name="Path 350" d="M14,21.091A7.091,7.091,0,1,1,21.091,14,7.091,7.091,0,0,1,14,21.091Zm0-2.364A4.727,4.727,0,1,0,9.273,14,4.727,4.727,0,0,0,14,18.727ZM12.818,1h2.364V4.545H12.818Zm0,22.455h2.364V27H12.818ZM3.972,5.643,5.643,3.972,8.15,6.479,6.479,8.15,3.972,5.645ZM19.85,21.521l1.671-1.671,2.507,2.507-1.671,1.671Zm2.507-17.55,1.671,1.672L21.521,8.15,19.85,6.479l2.507-2.507ZM6.479,19.85,8.15,21.521,5.643,24.028,3.972,22.357ZM27,12.818v2.364H23.455V12.818Zm-22.455,0v2.364H1V12.818Z" transform="translate(-1 -1)" fill="#fff" opacity="0.7"/>
</svg>
