<svg xmlns="http://www.w3.org/2000/svg" width="135.305" height="50" viewBox="0 0 135.305 50">
  <style>
    #Path_37 {
      transform-origin: center;
      transform-box: fill-box;
      animation: bounce-in-fwd 3s linear infinite;
    }
    @keyframes bounce-in-fwd {
      0% {
        transform: scale(1);
        animation-timing-function: ease-in;
        opacity: 1;
      }
      38% {
        transform: scale(1);
        animation-timing-function: ease-out;
        opacity: 1;
      }
      55% {
        transform: scale(0.7);
        animation-timing-function: ease-in;
      }
      72% {
        transform: scale(1);
        animation-timing-function: ease-out;
      }
      81% {
        transform: scale(0.84);
        animation-timing-function: ease-in;
      }
      89% {
        transform: scale(1);
        animation-timing-function: ease-out;
      }
      95% {
        transform: scale(0.95);
        animation-timing-function: ease-in;
      }
      100% {
        transform: scale(1);
        animation-timing-function: ease-out;
      }
  }
  </style>
  <g id="نص_فقط_اصفر_وابيض" data-name="نص فقط اصفر وابيض" transform="translate(-2.1 -134)">
    <path id="Path_1" data-name="Path 1" d="M10.205,242.505a.685.685,0,0,0,.479,1.164.676.676,0,0,0,.479-.205.622.622,0,0,0,.205-.479.676.676,0,0,0-.205-.479.622.622,0,0,0-.479-.205A.676.676,0,0,0,10.205,242.505Z" transform="translate(-5.195 -71.444)" fill="#fff"/>
    <path id="Path_2" data-name="Path 2" d="M15.005,242.505a.678.678,0,1,0,1.164.479.676.676,0,0,0-.205-.479.662.662,0,0,0-.959,0Z" transform="translate(-8.352 -71.444)" fill="#fff"/>
    <path id="Path_3" data-name="Path 3" d="M10.8,255a.4.4,0,0,1-.137.342.55.55,0,0,1-.377.171H8.194a.311.311,0,0,1-.274-.137A.468.468,0,0,1,7.783,255v-5.1H7.2l-.582.445a3.625,3.625,0,0,0-1.438-.308,2.924,2.924,0,0,0-2.123.89,3.3,3.3,0,0,0-.959,2.431,3.6,3.6,0,0,0,.685,2.157,2.68,2.68,0,0,0,2.225,1.1,3.176,3.176,0,0,0,1.883-.616,1.217,1.217,0,0,0,.993.479h2.842a1.153,1.153,0,0,0,.89-.411,1.252,1.252,0,0,0,.308-.856v-4.93H10.8V255Zm-4.142.24a3.163,3.163,0,0,1-1.506.377,1.543,1.543,0,0,1-1.335-.582,2.618,2.618,0,0,1-.514-1.712,2.486,2.486,0,0,1,.514-1.575,1.952,1.952,0,0,1,1.643-.822,2.6,2.6,0,0,1,1.2.308Z" transform="translate(0 -76.513)" fill="#fff"/>
    <path id="Path_4" data-name="Path 4" d="M27.185,273.1a.676.676,0,0,0-.479.205.622.622,0,0,0-.205.479.676.676,0,0,0,.205.479.685.685,0,0,0,1.164-.479.676.676,0,0,0-.205-.479A.621.621,0,0,0,27.185,273.1Z" transform="translate(-16.047 -91.77)" fill="#fff"/>
    <path id="Path_5" data-name="Path 5" d="M22.485,273.1a.7.7,0,0,0-.685.685.676.676,0,0,0,.205.479.622.622,0,0,0,.479.205.676.676,0,0,0,.479-.205.622.622,0,0,0,.205-.479.676.676,0,0,0-.205-.479A.739.739,0,0,0,22.485,273.1Z" transform="translate(-12.956 -91.77)" fill="#fff"/>
    <path id="Path_6" data-name="Path 6" d="M36.592,257.025c0,1.609-.89,2.431-2.636,2.431a6.663,6.663,0,0,1-.856-.068v.445l.445.548h.616a8.422,8.422,0,0,0,.959-.068,3.264,3.264,0,0,0,1.78-.89,3.182,3.182,0,0,0,.856-2.362V251h-1.13v6.025Z" transform="translate(-20.387 -77.236)" fill="#fff"/>
    <path id="Path_7" data-name="Path 7" d="M65.785,273.1a.676.676,0,0,0-.479.205.622.622,0,0,0-.205.479.676.676,0,0,0,.205.479.685.685,0,0,0,1.164-.479.7.7,0,0,0-.685-.685Z" transform="translate(-41.432 -91.77)" fill="#fff"/>
    <path id="Path_8" data-name="Path 8" d="M86.805,242.505a.685.685,0,0,0,.479,1.164.676.676,0,0,0,.479-.205.622.622,0,0,0,.205-.479.676.676,0,0,0-.205-.479.622.622,0,0,0-.479-.205A.676.676,0,0,0,86.805,242.505Z" transform="translate(-55.741 -71.444)" fill="#fff"/>
    <path id="Path_9" data-name="Path 9" d="M82.105,242.505a.678.678,0,1,0,1.164.479.676.676,0,0,0-.205-.479.622.622,0,0,0-.479-.205A.575.575,0,0,0,82.105,242.505Z" transform="translate(-52.64 -71.444)" fill="#fff"/>
    <path id="Path_10" data-name="Path 10" d="M68.122,249.082a.44.44,0,0,1-.137.342.491.491,0,0,1-.377.171H65.075a.948.948,0,0,0,.034-.308v-4.93H63.98v4.724a.55.55,0,0,1-.171.377.439.439,0,0,1-.342.137H61.172a.948.948,0,0,0,.034-.308v-1.712a3.4,3.4,0,0,0-.753-2.328,3.156,3.156,0,0,0-2.533-1.027,8.444,8.444,0,0,0-2.328.377v.89a11.348,11.348,0,0,1,2.157-.308,2.294,2.294,0,0,1,1.78.685,2.329,2.329,0,0,1,.548,1.643v1.575a.454.454,0,0,1-.514.514h-5.82a.515.515,0,0,1-.377-.137.468.468,0,0,1-.137-.377V240.9H52.1v8.353a1.189,1.189,0,0,0,.445.993,1.03,1.03,0,0,0,.753.274h6.71a1.25,1.25,0,0,0,.959-.479H61l.377.479h2.533a1.25,1.25,0,0,0,.959-.479H64.9l.377.479h2.807a1.3,1.3,0,0,0,.89-.377,1.212,1.212,0,0,0,.342-.89V240.9h-1.13v8.182Z" transform="translate(-32.882 -70.594)" fill="#fff"/>
    <path id="Path_11" data-name="Path 11" d="M107.7,250.863h.582l.582-.445V240.9H107.7Z" transform="translate(-69.659 -70.594)" fill="#fff"/>
    <path id="Path_12" data-name="Path 12" d="M120.761,251.048a2.7,2.7,0,0,0-1.78-.548,3.1,3.1,0,0,0-2.294.89,3.3,3.3,0,0,0-.787,2.26,3.37,3.37,0,0,0,.753,2.294,2.848,2.848,0,0,0,2.294,1.027,4.284,4.284,0,0,0,1.472-.24c0,1.609-.89,2.4-2.636,2.4a6.668,6.668,0,0,1-.856-.069v.445l.445.548h.616a5.668,5.668,0,0,0,1.1-.1,3.131,3.131,0,0,0,1.369-.616,3.07,3.07,0,0,0,1.13-2.6v-3.8A2.274,2.274,0,0,0,120.761,251.048Zm-.308,4.622a3.663,3.663,0,0,1-1.4.24,1.807,1.807,0,0,1-1.4-.548,2.12,2.12,0,0,1-.582-1.609,2.519,2.519,0,0,1,.514-1.678,1.745,1.745,0,0,1,1.4-.616,1.4,1.4,0,0,1,.856.24,1.381,1.381,0,0,1,.582,1.267v2.7Z" transform="translate(-75.076 -76.908)" fill="#fff"/>
    <path id="Path_13" data-name="Path 13" d="M153.064,243.364a.622.622,0,0,0,.205-.479.676.676,0,0,0-.205-.479.622.622,0,0,0-.479-.205.676.676,0,0,0-.479.205.678.678,0,1,0,.959.959Z" transform="translate(-98.816 -71.378)" fill="#fff"/>
    <path id="Path_14" data-name="Path 14" d="M157.385,243.569a.7.7,0,0,0,.685-.685.676.676,0,0,0-.205-.479.622.622,0,0,0-.479-.205.676.676,0,0,0-.479.205.662.662,0,0,0,0,.959A.676.676,0,0,0,157.385,243.569Z" transform="translate(-101.982 -71.378)" fill="#fff"/>
    <path id="Path_15" data-name="Path 15" d="M164.385,273.1a.7.7,0,0,0-.685.685.676.676,0,0,0,.205.479.622.622,0,0,0,.479.205.676.676,0,0,0,.479-.205.622.622,0,0,0,.205-.479.7.7,0,0,0-.685-.685Z" transform="translate(-106.6 -91.77)" fill="#fff"/>
    <path id="Path_16" data-name="Path 16" d="M169.085,273.1a.676.676,0,0,0-.479.205.622.622,0,0,0-.205.479.676.676,0,0,0,.205.479.685.685,0,0,0,1.164-.479.676.676,0,0,0-.205-.479A.574.574,0,0,0,169.085,273.1Z" transform="translate(-109.7 -91.77)" fill="#fff"/>
    <path id="Path_17" data-name="Path 17" d="M152.762,255a.4.4,0,0,1-.137.342.55.55,0,0,1-.377.171H150.16a.311.311,0,0,1-.274-.137.468.468,0,0,1-.137-.377v-5.1H149.2l-.582.445a3.625,3.625,0,0,0-1.438-.308,2.924,2.924,0,0,0-2.123.89,3.3,3.3,0,0,0-.959,2.431,3.6,3.6,0,0,0,.685,2.157,2.68,2.68,0,0,0,2.225,1.1,3.176,3.176,0,0,0,1.883-.616,1.217,1.217,0,0,0,.993.479h2.842a1.153,1.153,0,0,0,.89-.411,1.252,1.252,0,0,0,.308-.856v-4.93H152.8V255Zm-4.143.24a3.163,3.163,0,0,1-1.506.377,1.544,1.544,0,0,1-1.335-.582,2.618,2.618,0,0,1-.514-1.712,2.486,2.486,0,0,1,.514-1.575,1.952,1.952,0,0,1,1.643-.822,2.6,2.6,0,0,1,1.2.308Z" transform="translate(-93.69 -76.513)" fill="#fff"/>
    <path id="Path_18" data-name="Path 18" d="M178.492,257.025c0,1.609-.89,2.431-2.636,2.431a6.663,6.663,0,0,1-.856-.068v.445l.445.548h.616a8.421,8.421,0,0,0,.959-.068,3.264,3.264,0,0,0,1.78-.89,3.182,3.182,0,0,0,.856-2.362V251h-1.13v6.025Z" transform="translate(-114.063 -77.236)" fill="#fff"/>
    <path id="Path_19" data-name="Path 19" d="M194,250.863h.582l.548-.445V240.9H194Z" transform="translate(-126.587 -70.594)" fill="#fff"/>
    <path id="Path_20" data-name="Path 20" d="M204,250.5a9.114,9.114,0,0,0-1.027.068v.89a3.068,3.068,0,0,1,.616-.068,2.64,2.64,0,0,1,1.917.65,2.292,2.292,0,0,1,.582,1.575v1.712a.454.454,0,0,1-.514.514H201.6v.959h4.416a1.167,1.167,0,0,0,.856-.377,1.212,1.212,0,0,0,.342-.89v-2.054a2.946,2.946,0,0,0-.822-2.123A3.412,3.412,0,0,0,204,250.5Z" transform="translate(-131.614 -76.908)" fill="#fff"/>
    <path id="Path_21" data-name="Path 21" d="M233.4,275.08a.818.818,0,0,1-.171-.479.625.625,0,0,1,.685-.719,2.685,2.685,0,0,1,.479.068V273.4a2.325,2.325,0,0,0-.65-.1,1.111,1.111,0,0,0-.822.308,1.139,1.139,0,0,0-.308.856,1.45,1.45,0,0,0,.274.89H232.3v.548h2.26l.274-.308v-.24h-.856A.731.731,0,0,1,233.4,275.08Z" transform="translate(-151.856 -91.902)" fill="#fff"/>
    <path id="Path_22" data-name="Path 22" d="M228.268,249.082a.578.578,0,0,1-.1.342.55.55,0,0,1-.377.171h-1.164l-2.328-7.018h-1.13l2.328,7.018H221.9v.377l.479.582h5.888a1.25,1.25,0,0,0,.959-.479,1.142,1.142,0,0,0,.274-.822V240.9h-1.164v8.182Z" transform="translate(-145.013 -70.594)" fill="#fff"/>
    <path id="Path_23" data-name="Path 23" d="M249.3,250.863h.548l.582-.445V240.9H249.3Z" transform="translate(-163.065 -70.594)" fill="#fff"/>
    <path id="Path_24" data-name="Path 24" d="M275.194,255.725a.454.454,0,0,1-.514.514h-6.95a1.264,1.264,0,0,1-.924-.377,1.243,1.243,0,0,1-.377-.89v-3.013h-.548l-.582.479v2.533a2.164,2.164,0,0,0,.753,1.712,1.919,1.919,0,0,0,1.335.514h7.737a1.2,1.2,0,0,0,.924-.445,1.227,1.227,0,0,0,.308-.822V251h-1.13v4.725Z" transform="translate(-173.662 -77.236)" fill="#fff"/>
    <path id="Path_25" data-name="Path 25" d="M282.485,251.169a.685.685,0,0,0,0-1.369.676.676,0,0,0-.479.205.622.622,0,0,0-.205.479.7.7,0,0,0,.685.685Z" transform="translate(-184.505 -76.392)" fill="#fff"/>
    <path id="Path_26" data-name="Path 26" d="M277.305,250.105a.622.622,0,0,0-.205.479.676.676,0,0,0,.205.479.621.621,0,0,0,.479.205.676.676,0,0,0,.479-.205.678.678,0,1,0-.959-.959Z" transform="translate(-181.405 -76.458)" fill="#fff"/>
    <path id="Path_27" data-name="Path 27" d="M309.779,244.121a3.043,3.043,0,0,0-1.678.411,2.245,2.245,0,0,0-.959,2.02v2.431a.515.515,0,0,1-.137.377.468.468,0,0,1-.377.137h-1.986a.515.515,0,0,1-.377-.137.467.467,0,0,1-.137-.377V240.8H303v8.353a1.189,1.189,0,0,0,.445.993,1.03,1.03,0,0,0,.753.274h2.842a1.153,1.153,0,0,0,.959-.479,2.369,2.369,0,0,0,1.883.89,2.561,2.561,0,0,0,2.054-.959,3.667,3.667,0,0,0,.856-2.465,3.326,3.326,0,0,0-.856-2.465A3.182,3.182,0,0,0,309.779,244.121Zm1.369,5.135a1.574,1.574,0,0,1-1.3.65,2.047,2.047,0,0,1-1.541-.719v-2.636a1.407,1.407,0,0,1,1.438-1.506,1.734,1.734,0,0,1,1.335.582,2.7,2.7,0,0,1,.582,1.883A2.785,2.785,0,0,1,311.148,249.256Z" transform="translate(-198.53 -70.528)" fill="#fff"/>
    <path id="Path_28" data-name="Path 28" d="M363.664,243.364a.622.622,0,0,0,.205-.479.676.676,0,0,0-.205-.479.622.622,0,0,0-.479-.205.676.676,0,0,0-.479.205.685.685,0,0,0,.479,1.164A.575.575,0,0,0,363.664,243.364Z" transform="translate(-237.805 -71.378)" fill="#fff"/>
    <path id="Path_29" data-name="Path 29" d="M355.165,249.148a.44.44,0,0,1-.137.342.49.49,0,0,1-.377.171h-2.533a.948.948,0,0,0,.034-.308V241h-1.13v8.182a.552.552,0,0,1-.1.308.488.488,0,0,1-.411.205h-2.294a.948.948,0,0,0,.034-.308v-1.712a3.4,3.4,0,0,0-.753-2.328,3.156,3.156,0,0,0-2.533-1.027,8.445,8.445,0,0,0-2.328.377v.89a11.346,11.346,0,0,1,2.157-.308,2.3,2.3,0,0,1,1.78.685,2.328,2.328,0,0,1,.548,1.643v1.575a.454.454,0,0,1-.513.514H340.58a.948.948,0,0,0,.034-.308v-2.054a2.946,2.946,0,0,0-.822-2.123,3.2,3.2,0,0,0-2.4-.89,9.108,9.108,0,0,0-1.027.068v.89a3.073,3.073,0,0,1,.616-.068,2.64,2.64,0,0,1,1.917.65,2.292,2.292,0,0,1,.582,1.575v1.712a.454.454,0,0,1-.514.514H335v.959h4.416a1.046,1.046,0,0,0,.685-.24.8.8,0,0,0,.24-.24h.034l.377.479h6.3a1.25,1.25,0,0,0,.959-.479h.034l.377.479h2.568a1.25,1.25,0,0,0,.959-.479h.034l.445.479h2.739a1.3,1.3,0,0,0,.89-.377,1.212,1.212,0,0,0,.342-.89V241h-1.13v8.148Z" transform="translate(-219.72 -70.66)" fill="#fff"/>
    <path id="Path_30" data-name="Path 30" d="M78.414,162.723a2.383,2.383,0,0,0,.548-.068H90.5a1.714,1.714,0,0,0,1.267-.548,1.566,1.566,0,0,0,.548-1.267,1.714,1.714,0,0,0-.548-1.267,1.945,1.945,0,0,0-1.267-.479H80.229v-8.182H90.808a1.714,1.714,0,0,0,1.267-.548,1.566,1.566,0,0,0,.548-1.267,1.873,1.873,0,0,0-1.814-1.814H80.263v-8.422H90.534a1.945,1.945,0,0,0,1.267-.479,1.714,1.714,0,0,0,.548-1.267,1.566,1.566,0,0,0-.548-1.267,1.714,1.714,0,0,0-1.267-.548H78.414a1.521,1.521,0,0,0-1.267.548,1.566,1.566,0,0,0-.548,1.267v23.759a1.521,1.521,0,0,0,.548,1.267A1.812,1.812,0,0,0,78.414,162.723Z" transform="translate(-49.162 -0.855)" fill="#fdd301"/>
    <path id="Path_31" data-name="Path 31" d="M167.846,205.1h-11.4a1.746,1.746,0,0,0,0,3.492h11.4a1.746,1.746,0,0,0,0-3.492Z" transform="translate(-100.697 -46.91)" fill="#fdd301"/>
    <path id="Path_32" data-name="Path 32" d="M158.843,135.75a1.807,1.807,0,0,0-1.369-.65H141.383a1.579,1.579,0,0,0-1.746,1.814,1.543,1.543,0,0,0,1.746,1.746H153.57l-14.482,20.233a1.767,1.767,0,1,0,2.054,2.876l17.426-23.417a1.562,1.562,0,0,0,.411-2.465Z" transform="translate(-89.859 -0.723)" fill="#fdd301"/>
    <path id="Path_33" data-name="Path 33" d="M217.992,160.622V142.546L233.74,162.2a1.767,1.767,0,1,0,2.876-2.054l-18.932-23.554a1.5,1.5,0,0,0-2.4-.411l-.24.171a1.566,1.566,0,0,0-.548,1.267v23.006a1.746,1.746,0,1,0,3.492,0Z" transform="translate(-140.19 -1.151)" fill="#fdd301"/>
    <path id="Path_34" data-name="Path 34" d="M272.946,154.421a1.543,1.543,0,0,0,1.746-1.746V137.646a1.746,1.746,0,1,0-3.492,0v15.029A1.543,1.543,0,0,0,272.946,154.421Z" transform="translate(-177.521 -1.25)" fill="#fdd301"/>
    <path id="Path_35" data-name="Path 35" d="M305.595,162.791a1.543,1.543,0,0,0,1.746-1.746,1.607,1.607,0,0,0-1.746-1.814h-1.027V138.86h1.027a1.781,1.781,0,0,0,0-3.561h-5.649q-1.746.1-1.746,1.746a1.6,1.6,0,0,0,1.815,1.814h.959v20.37h-1.027a1.622,1.622,0,0,0-1.746,1.814,1.579,1.579,0,0,0,1.815,1.746Z" transform="translate(-195.36 -0.855)" fill="#fdd301"/>
    <path id="Path_36" data-name="Path 36" d="M360.888,149.062a7.649,7.649,0,0,0-5.409-1.986h-1.986c-3.561-.068-5.375-1.369-5.478-3.971a4.581,4.581,0,0,1,1.13-3.595,2.873,2.873,0,0,1,2.054-.959h9.072a1.579,1.579,0,0,0,1.746-1.814,1.543,1.543,0,0,0-1.746-1.746H351.85a6.918,6.918,0,0,0-5.1,2.054,7.707,7.707,0,0,0-2.465,6.3,6.706,6.706,0,0,0,3.424,6.06,10.147,10.147,0,0,0,2.773.959,10.735,10.735,0,0,0,2.4.24l2.636.068.548.068a3.4,3.4,0,0,1,1.506.479c1.369.685,2.02,1.986,1.917,3.9-.1,2.5-2.054,3.766-5.889,3.834h-5.478a1.543,1.543,0,0,0-1.746,1.746c0,1.232.582,1.814,1.746,1.814h6.676a18.054,18.054,0,0,0,2.533-.171,7.035,7.035,0,0,0,2.7-.959c2.02-1.13,3.081-3.15,3.184-6.128A7.64,7.64,0,0,0,360.888,149.062Z" transform="translate(-225.82 -0.649)" fill="#fdd301"/>
    <path id="Path_37" data-name="Path 37" d="M4.978,162.107h11.88a2.313,2.313,0,0,0,.479-.068,7.689,7.689,0,0,0,4.759-2.328,7.828,7.828,0,0,0,1.849-5.58,8.915,8.915,0,0,0-1.951-5.58,6.993,6.993,0,0,0-3.458-2.191,8.448,8.448,0,0,0,1.3-4.93,7.313,7.313,0,0,0-2.67-5.717A6.938,6.938,0,0,0,12.578,134v.068h-7.6a1.652,1.652,0,0,0-1.2.479,2.034,2.034,0,0,0-.479,1.3v25.2l.479.479A1.508,1.508,0,0,0,4.978,162.107Zm1.678-24.376h6.128a1.165,1.165,0,0,0,.479.068,3.506,3.506,0,0,1,1.2.479,3.552,3.552,0,0,1,1.849,3.321,4.124,4.124,0,0,1-1.061,2.978,4.609,4.609,0,0,1-1.541,1.13l-.205.1v-1.13L8.367,147.66l2.568,1.472L13.5,150.6v-1.13a19.615,19.615,0,0,1,2.568.342l.411.1.205.068c.171.034.342.1.514.137h.034c.274.1.514.171.719.274l.205.1c.034.034.068.034.1.068a4.46,4.46,0,0,1,.514.342h0a3.736,3.736,0,0,1,1.609,3.389,4.272,4.272,0,0,1-.89,2.739,5.376,5.376,0,0,1-1.541,1.061,4.114,4.114,0,0,1-2.02.308H6.655Z" transform="translate(-0.789)" fill="#fdd301"/>
  </g>
</svg>
