<svg xmlns="http://www.w3.org/2000/svg" width="79.913" height="82.303" viewBox="0 0 79.913 82.303">
  <g id="scribble" transform="translate(79.913 40.305) rotate(135)">
    <g id="Group_255" data-name="Group 255" transform="translate(0)">
      <path id="Path_621" data-name="Path 621" d="M54.037,10.3c-9.048-11.4-26.791-8.578-30.9,5.64a15.111,15.111,0,0,0-.47,2.233c9.518,2.115,18.8,9.048,19.623,17.391.705,7.52-6.933,9.753-11.986,5.523-5.993-5.053-10.223-12.456-10.575-20.328-6.11-.823-12.1.823-15.393,6.815C-1.19,37.68,6.213,51.311,16.083,55.306c1.058.353.588,2-.47,1.645C1.983,53.073-5.068,34.037,4.215,22.757,7.858,18.409,13.733,17,19.843,17.7,20.666,9.714,26.894,3.369,34.3.9c8.578-2.82,16.451,1.292,21.5,7.99C56.623,9.949,54.86,11.241,54.037,10.3ZM27.716,34.037c1.88,2.585,4.348,5.523,7.52,6.58,3.055,1.058,4.113-3.173,4.23-5.053.118-2.35-1.528-4.465-3.055-6.11a28.856,28.856,0,0,0-13.865-8.225C22.9,25.812,25.131,30.277,27.716,34.037Z" transform="translate(0 0)" fill="#fdd301"/>
      <path id="Path_622" data-name="Path 622" d="M10.594,12.015a39.713,39.713,0,0,1-9.87-1.058c-1.292-.353-.705-2.115.588-1.88a35.322,35.322,0,0,0,7.873.235c-.117-1.527-.235-3.172-.47-4.7C8.48,3.437,7.657,1.675,8.362.5A1.118,1.118,0,0,1,9.89.147C11.3.734,11.3,3.2,11.535,4.495A37.056,37.056,0,0,1,12,10.723,1.411,1.411,0,0,1,10.594,12.015Z" transform="translate(50.023 2.634)" fill="#fdd301"/>
    </g>
  </g>
</svg>
