<svg width="354" height="393" viewBox="0 0 354 393" fill="none" xmlns="http://www.w3.org/2000/svg">
<style>
    #translate_1 , #translate_2 , #cahrt , #dolar, #translate_3 , #translate_4 , #circle_1 , #circle_2 , #circle_3 , #circle_4 , 
    #rotate_1 , #lamb{
        transform-origin: center;
        transform-box: fill-box;
    }
    #translate_1 {
        animation: translateY 2s linear infinite;
    }
    #translate_2 , #translate_3 , #translate_4 {
        animation: translateX 2s linear infinite;
    }
    #cahrt , #dolar , #lamb , #rotate_1  {
        animation: bounce-in-fwd 2s linear infinite reverse;
    }
    #circle_1 ,  #circle_3  {
        animation: spin 4s linear infinite;
    }
    #circle_2 , #circle_4 {
        animation: spinReverse 4s linear infinite;
    }
    #bk_1 , #bk_2 , #bk_3 {
        opacity: .4;
         animation: translateX 2s linear infinite;
    }
    @keyframes translateX {

        0%,
        100% {
            transform: translateX(2px);
        }

        50% {
            transform: translateX(-2px);
        }
    }
    @keyframes bounce-in-fwd {
        0% {
            transform: scale(1);
            animation-timing-function: ease-in;
            opacity: 1;
        }
        38% {
            transform: scale(1);
            animation-timing-function: ease-out;
            opacity: 1;
        }
        55% {
            transform: scale(0.7);
            animation-timing-function: ease-in;
        }
        72% {
            transform: scale(1);
            animation-timing-function: ease-out;
        }
        81% {
            transform: scale(0.84);
            animation-timing-function: ease-in;
        }
        89% {
            transform: scale(1);
            animation-timing-function: ease-out;
        }
        95% {
            transform: scale(0.95);
            animation-timing-function: ease-in;
        }
        100% {
            transform: scale(1);
            animation-timing-function: ease-out;
        }
    }
    @keyframes translateY {

        0%,
        100% {
            transform: translateY(2px);
        }

        50% {
            transform: translateY(-2px);
        }
    }
    @keyframes spin {
        0% {
            -webkit-transform: rotate(0deg);
            -ms-transform: rotate(0deg);
            transform: rotate(0deg);
        }

        100% {
            -webkit-transform: rotate(360deg);
            -ms-transform: rotate(360deg);
            transform: rotate(360deg);
        }
    }
    @keyframes spinReverse {
        0% {
            -webkit-transform: rotate(0deg);
            -ms-transform: rotate(0deg);
            transform: rotate(0deg);
        }

        100% {
            -webkit-transform: rotate(-360deg);
            -ms-transform: rotate(-360deg);
            transform: rotate(-360deg);
        }
    }
</style>
<g id="Group 205">
<path id="bk_1" d="M247.975 147.785H353.607C353.568 144.376 352.696 141.028 351.065 138.034C349.435 135.04 347.097 132.49 344.254 130.608C341.412 128.725 338.152 127.567 334.759 127.234C331.366 126.902 327.943 127.404 324.789 128.699C322.488 121.971 317.916 116.253 311.858 112.53C305.8 108.806 298.634 107.309 291.592 108.295C284.549 109.281 278.07 112.689 273.268 117.933C268.465 123.177 265.639 129.93 265.275 137.032C263.432 136.565 261.513 136.474 259.634 136.766C257.754 137.057 255.953 137.725 254.338 138.729C252.723 139.733 251.327 141.053 250.234 142.609C249.14 144.165 248.372 145.925 247.975 147.785V147.785Z" fill="#FDD301" />
<path id="bk_2" d="M200.131 232.467H290.921C290.888 229.537 290.138 226.659 288.736 224.085C287.335 221.512 285.325 219.32 282.881 217.702C280.437 216.085 277.635 215.09 274.718 214.805C271.802 214.52 268.86 214.953 266.149 216.067C264.171 210.285 260.241 205.371 255.035 202.172C249.828 198.972 243.67 197.685 237.617 198.533C231.565 199.38 225.997 202.309 221.869 206.815C217.742 211.322 215.313 217.126 214.999 223.229C213.415 222.827 211.766 222.749 210.151 222.999C208.536 223.249 206.988 223.823 205.6 224.685C204.212 225.548 203.012 226.682 202.072 228.019C201.133 229.356 200.472 230.869 200.131 232.467Z"  fill="#FDD301" />
<path id="bk_3" d="M20.102 61.011H125.735C125.696 57.6015 124.824 54.2532 123.193 51.2585C121.563 48.2639 119.224 45.7139 116.381 43.8313C113.538 41.9487 110.277 40.7907 106.884 40.4584C103.49 40.1261 100.067 40.6296 96.913 41.925C94.6123 35.1965 90.0401 29.4793 83.9819 25.7558C77.9238 22.0323 70.758 20.5349 63.7157 21.5209C56.6734 22.507 50.1944 25.9149 45.3919 31.1591C40.5894 36.4033 37.7632 43.1564 37.399 50.258C35.5556 49.7909 33.6368 49.7005 31.7576 49.9922C29.8784 50.2838 28.0774 50.9516 26.4623 51.9555C24.8472 52.9594 23.4511 54.2788 22.3578 55.8348C21.2644 57.3907 20.4962 59.1512 20.099 61.011H20.102Z" fill="#FDD301"/>
<g id="circle_3">
<path id="Union 2" opacity="0.1" d="M89.721 342.506H80.959C80.2875 342.506 79.637 342.272 79.1195 341.844C78.602 341.417 78.2499 340.822 78.124 340.162L76.168 329.939C68.453 328.327 61.1085 325.283 54.515 320.965L45.899 326.814C45.3432 327.191 44.6734 327.362 44.0049 327.299C43.3364 327.235 42.7109 326.941 42.236 326.466L36.779 321.009L36.04 320.27L30.584 314.814C30.1091 314.339 29.8145 313.713 29.751 313.045C29.6875 312.376 29.859 311.706 30.236 311.15L36.086 302.534C31.7686 295.94 28.7248 288.596 27.112 280.881L16.887 278.927C16.2278 278.8 15.6333 278.448 15.2058 277.93C14.7782 277.413 14.5442 276.762 14.544 276.091V259.614C14.5439 258.943 14.7778 258.292 15.2054 257.775C15.633 257.257 16.2277 256.905 16.887 256.779L27.109 254.823C28.7208 247.107 31.765 239.761 36.084 233.167L30.236 224.553C29.8589 223.997 29.6873 223.327 29.7508 222.659C29.8144 221.99 30.109 221.365 30.584 220.89L36.044 215.434L36.783 214.695L42.24 209.238C42.7151 208.763 43.3406 208.469 44.0091 208.406C44.6776 208.343 45.3473 208.514 45.903 208.891L54.518 214.74C61.1119 210.422 68.4567 207.378 76.172 205.766L78.124 195.543C78.2497 194.883 78.6017 194.288 79.1192 193.86C79.6367 193.432 80.2874 193.198 80.959 193.198H97.436C98.1076 193.198 98.7582 193.432 99.2759 193.86C99.7935 194.288 100.146 194.883 100.272 195.543L102.227 205.764C109.943 207.376 117.289 210.42 123.883 214.739L132.497 208.891C133.053 208.514 133.722 208.342 134.391 208.405C135.06 208.469 135.685 208.763 136.16 209.238L141.617 214.695L142.355 215.434L147.812 220.891C148.287 221.366 148.581 221.991 148.645 222.66C148.708 223.329 148.536 223.998 148.159 224.554L142.311 233.168C146.63 239.762 149.674 247.108 151.286 254.824L161.508 256.78C162.167 256.906 162.762 257.258 163.19 257.776C163.618 258.293 163.851 258.944 163.851 259.615V276.091C163.851 276.762 163.617 277.413 163.19 277.93C162.762 278.448 162.167 278.8 161.508 278.927L151.284 280.882C149.671 288.597 146.627 295.941 142.31 302.535L148.159 311.151C148.536 311.707 148.708 312.377 148.644 313.045C148.581 313.714 148.287 314.34 147.812 314.815L142.355 320.271L141.617 321.01L136.16 326.467C135.685 326.942 135.06 327.236 134.391 327.3C133.723 327.363 133.053 327.192 132.497 326.815L123.882 320.966C117.288 325.285 109.943 328.329 102.227 329.941L100.272 340.163C100.146 340.822 99.7932 341.417 99.2756 341.845C98.758 342.273 98.1075 342.507 97.436 342.507L89.721 342.506ZM54.474 267.856C54.4746 274.723 56.5115 281.436 60.3272 287.146C64.1428 292.856 69.5659 297.306 75.9106 299.934C82.2554 302.562 89.2369 303.25 95.9723 301.91C102.708 300.57 108.895 297.263 113.751 292.407C118.607 287.551 121.914 281.365 123.254 274.629C124.595 267.894 123.907 260.912 121.28 254.567C118.652 248.223 114.203 242.799 108.493 238.983C102.783 235.167 96.0704 233.13 89.203 233.129C79.9956 233.139 71.1682 236.801 64.6574 243.311C58.1466 249.821 54.4843 258.649 54.474 267.856V267.856Z" fill="#FDD301"/>
<g id="Path 514" style="mix-blend-mode:multiply" opacity="0.09">
<path d="M89.202 224.468C97.7824 224.468 106.17 227.012 113.304 231.779C120.439 236.546 125.999 243.322 129.283 251.249C132.567 259.176 133.426 267.899 131.753 276.314C130.079 284.73 125.947 292.46 119.881 298.528C113.814 304.595 106.084 308.727 97.6682 310.402C89.2528 312.076 80.5299 311.218 72.6024 307.935C64.675 304.652 57.899 299.092 53.1315 291.958C48.3639 284.824 45.8188 276.436 45.818 267.856C45.8302 256.353 50.4048 245.325 58.5381 237.191C66.6714 229.057 77.6992 224.481 89.202 224.468V224.468ZM89.202 302.574C96.0695 302.573 102.782 300.535 108.492 296.719C114.201 292.903 118.651 287.479 121.278 281.134C123.905 274.788 124.592 267.807 123.251 261.071C121.91 254.336 118.602 248.15 113.745 243.294C108.888 238.439 102.701 235.133 95.9648 233.794C89.2291 232.455 82.2476 233.144 75.9032 235.773C69.5589 238.402 64.1366 242.854 60.322 248.564C56.5075 254.275 54.472 260.989 54.473 267.856C54.4833 277.063 58.1459 285.889 64.657 292.398C71.168 298.907 79.9955 302.567 89.202 302.574V302.574Z" fill="#606060"/>
</g>
</g>
<g id="circle_2">
<path id="Path 515" d="M190.553 275.949C190.654 275.424 190.934 274.95 191.346 274.609C191.758 274.269 192.276 274.082 192.811 274.082H205.935C206.469 274.082 206.987 274.268 207.399 274.609C207.811 274.949 208.092 275.422 208.193 275.947L210.646 288.771H188.097L190.553 275.949Z" fill="#292929"/>
<path id="Path 516" d="M233.859 286.579C234.301 286.279 234.835 286.142 235.367 286.192C235.9 286.243 236.398 286.477 236.776 286.855L241.123 291.202L241.711 291.79L246.056 296.137C246.434 296.515 246.669 297.013 246.719 297.546C246.77 298.078 246.633 298.611 246.333 299.054L239 309.854L231.322 302.178L230.734 301.59L223.058 293.911L233.859 286.579Z" fill="#292929"/>
<path id="Path 517" d="M256.967 324.72C257.492 324.82 257.966 325.101 258.307 325.513C258.648 325.925 258.835 326.443 258.835 326.978V340.102C258.835 340.637 258.648 341.155 258.307 341.568C257.967 341.98 257.493 342.261 256.967 342.361L244.144 344.813V322.271L256.967 324.72Z" fill="#292929"/>
<path id="Path 518" d="M246.329 368.027C246.629 368.47 246.766 369.003 246.716 369.536C246.665 370.068 246.43 370.567 246.052 370.945L241.707 375.29L241.119 375.878L236.772 380.225C236.394 380.603 235.896 380.837 235.363 380.888C234.831 380.938 234.297 380.801 233.855 380.501L223.055 373.169L230.731 365.491L231.32 364.904L238.996 357.225L246.329 368.027Z" fill="#292929"/>
<path id="Path 519" d="M208.197 391.132C208.097 391.657 207.816 392.131 207.404 392.472C206.992 392.813 206.474 393 205.939 393H192.811C192.276 393 191.758 392.813 191.346 392.472C190.934 392.131 190.653 391.657 190.553 391.132L188.097 378.31H210.647L208.197 391.132Z" fill="#292929"/>
<path id="Path 520" d="M164.886 380.501C164.444 380.801 163.91 380.938 163.378 380.888C162.845 380.837 162.347 380.603 161.969 380.225L157.622 375.878L157.034 375.29L152.689 370.945C152.311 370.567 152.076 370.069 152.026 369.536C151.975 369.004 152.112 368.471 152.412 368.028L159.745 357.228L167.423 364.907L168.011 365.494L175.689 373.172L164.886 380.501Z" fill="#292929"/>
<path id="Path 521" d="M141.782 342.362C141.256 342.262 140.782 341.981 140.442 341.569C140.101 341.156 139.914 340.638 139.914 340.103V326.978C139.914 326.443 140.101 325.926 140.442 325.514C140.782 325.102 141.256 324.822 141.781 324.721L154.604 322.267V344.814L141.782 342.362Z" fill="#292929"/>
<path id="Path 522" d="M152.411 299.053C152.111 298.61 151.974 298.077 152.025 297.545C152.075 297.012 152.31 296.514 152.688 296.136L157.033 291.789L157.621 291.201L161.968 286.854C162.346 286.476 162.844 286.242 163.377 286.191C163.909 286.141 164.443 286.278 164.885 286.578L175.685 293.91L168.007 301.589L167.419 302.177L159.741 309.853L152.411 299.053Z" fill="#292929"/>
<path id="Path 523" d="M199.376 283.023C209.368 283.024 219.135 285.987 227.442 291.539C235.749 297.09 242.224 304.98 246.047 314.212C249.87 323.443 250.87 333.6 248.92 343.4C246.97 353.199 242.158 362.2 235.092 369.265C228.027 376.33 219.025 381.14 209.225 383.089C199.425 385.038 189.268 384.036 180.037 380.212C170.806 376.388 162.917 369.912 157.367 361.604C151.816 353.296 148.854 343.529 148.855 333.537C148.855 326.903 150.162 320.334 152.701 314.205C155.24 308.076 158.962 302.507 163.653 297.816C168.344 293.125 173.914 289.405 180.043 286.866C186.173 284.328 192.742 283.022 199.376 283.023V283.023ZM199.376 361.197C204.846 361.196 210.193 359.574 214.74 356.534C219.288 353.495 222.832 349.175 224.925 344.121C227.018 339.068 227.565 333.507 226.497 328.142C225.429 322.778 222.795 317.85 218.926 313.983C215.058 310.115 210.13 307.482 204.765 306.416C199.4 305.349 193.839 305.898 188.786 307.992C183.733 310.086 179.414 313.631 176.376 318.179C173.337 322.728 171.716 328.075 171.717 333.545C171.725 340.877 174.642 347.907 179.828 353.091C185.013 358.275 192.044 361.19 199.376 361.197V361.197Z" fill="#292929"/>
<path id="Path 524" d="M199.376 298.986C206.21 298.987 212.89 301.014 218.572 304.811C224.254 308.607 228.682 314.004 231.297 320.318C233.912 326.631 234.596 333.579 233.263 340.281C231.93 346.984 228.639 353.14 223.807 357.973C218.975 362.805 212.819 366.096 206.116 367.43C199.414 368.763 192.466 368.08 186.153 365.465C179.839 362.85 174.442 358.422 170.645 352.741C166.847 347.059 164.82 340.379 164.819 333.545C164.828 324.383 168.472 315.598 174.951 309.119C181.429 302.64 190.214 298.996 199.376 298.986V298.986ZM199.376 361.197C204.846 361.196 210.193 359.574 214.74 356.534C219.288 353.495 222.832 349.175 224.925 344.121C227.018 339.068 227.565 333.507 226.497 328.142C225.429 322.778 222.795 317.85 218.926 313.983C215.058 310.115 210.13 307.482 204.765 306.416C199.4 305.349 193.839 305.898 188.786 307.992C183.733 310.086 179.414 313.631 176.376 318.179C173.337 322.728 171.716 328.075 171.717 333.545C171.725 340.877 174.642 347.907 179.828 353.091C185.013 358.275 192.044 361.19 199.376 361.197V361.197Z" fill="#FDD301"/>
</g>
<g id="circle_1">
<path id="Path 525" d="M50.639 82.152C50.7395 81.6267 51.0199 81.1528 51.432 80.8118C51.8441 80.4709 52.3622 80.2842 52.897 80.284H66.021C66.5559 80.2842 67.0739 80.4709 67.486 80.8118C67.8981 81.1528 68.1785 81.6267 68.279 82.152L70.733 94.975H48.187L50.639 82.152Z" fill="#FDD301"/>
<path id="Path 526" d="M93.947 92.782C94.3896 92.4819 94.9229 92.3453 95.4553 92.3959C95.9877 92.4464 96.4858 92.6809 96.864 93.059L101.205 97.405L101.794 97.993L106.138 102.34C106.516 102.718 106.751 103.216 106.802 103.749C106.852 104.281 106.716 104.814 106.416 105.257L99.083 116.057L91.405 108.379L90.817 107.79L83.139 100.114L93.947 92.782Z" fill="#FDD301"/>
<path id="Path 527" d="M117.05 130.923C117.575 131.023 118.049 131.304 118.39 131.716C118.731 132.128 118.918 132.646 118.918 133.181V146.305C118.918 146.84 118.731 147.358 118.39 147.771C118.05 148.183 117.576 148.464 117.05 148.564L104.229 151.016V128.471L117.05 130.923Z" fill="#FDD301"/>
<path id="Path 528" d="M106.421 174.235C106.721 174.678 106.857 175.211 106.807 175.743C106.756 176.276 106.521 176.774 106.143 177.152L101.799 181.497L101.211 182.086L96.864 186.431C96.4858 186.809 95.9877 187.044 95.4553 187.094C94.9229 187.145 94.3896 187.008 93.947 186.708L83.147 179.375L90.825 171.699L91.413 171.11L99.091 163.432L106.421 174.235Z" fill="#FDD301"/>
<path id="Path 529" d="M68.279 197.335C68.1783 197.86 67.8978 198.334 67.4858 198.675C67.0737 199.015 66.5557 199.202 66.021 199.202H52.897C52.3623 199.202 51.8444 199.015 51.4323 198.675C51.0202 198.334 50.7397 197.86 50.639 197.335L48.187 184.512H70.734L68.279 197.335Z" fill="#FDD301"/>
<path id="Path 530" d="M24.977 186.705C24.5344 187.005 24.001 187.142 23.4687 187.091C22.9363 187.041 22.4382 186.806 22.06 186.428L17.715 182.083L17.126 181.494L12.782 177.149C12.4038 176.771 12.1691 176.273 12.1184 175.741C12.0676 175.208 12.204 174.675 12.504 174.232L19.838 163.432L27.514 171.11L28.102 171.699L35.78 179.375L24.977 186.705Z" fill="#FDD301"/>
<path id="Path 531" d="M1.868 148.564C1.34249 148.464 0.868464 148.183 0.527512 147.771C0.186559 147.358 3.04475e-05 146.84 1.52588e-05 146.305V133.181C0.000263 132.646 0.186884 132.128 0.527817 131.716C0.86875 131.304 1.34266 131.023 1.868 130.923L14.689 128.471V151.016L1.868 148.564Z" fill="#FDD301"/>
<path id="Path 532" d="M12.498 105.257C12.198 104.814 12.0616 104.281 12.1124 103.748C12.1631 103.216 12.3978 102.718 12.776 102.34L17.12 97.993L17.709 97.405L22.054 93.06C22.4322 92.6819 22.9303 92.4474 23.4627 92.3969C23.9951 92.3463 24.5284 92.4829 24.971 92.783L35.771 100.116L28.093 107.794L27.505 108.382L19.829 116.06L12.498 105.257Z" fill="#FDD301"/>
<path id="Path 533" d="M59.463 89.22C69.4545 89.2208 79.2213 92.1844 87.5285 97.736C95.8357 103.288 102.31 111.178 106.133 120.409C109.956 129.64 110.956 139.798 109.006 149.597C107.056 159.396 102.244 168.398 95.1781 175.462C88.1126 182.527 79.1109 187.337 69.3113 189.286C59.5116 191.235 49.3543 190.233 40.1236 186.409C30.8929 182.585 23.0035 176.11 17.4531 167.802C11.9026 159.494 8.9404 149.726 8.94099 139.735C8.94113 133.101 10.2481 126.531 12.7872 120.402C15.3263 114.273 19.0478 108.704 23.7393 104.013C28.4307 99.3225 34.0002 95.6017 40.1297 93.0635C46.2593 90.5252 52.8287 89.2192 59.463 89.22ZM59.463 167.394C64.9326 167.393 70.279 165.77 74.8262 162.731C79.3735 159.691 82.9173 155.372 85.0096 150.318C87.1019 145.264 87.6487 139.704 86.5808 134.34C85.5129 128.975 82.8783 124.048 79.0102 120.181C75.1421 116.314 70.2141 113.681 64.8495 112.615C59.4849 111.548 53.9246 112.097 48.8717 114.19C43.8187 116.284 39.5001 119.829 36.4619 124.377C33.4237 128.926 31.8024 134.272 31.803 139.742C31.8099 147.075 34.7264 154.107 39.9122 159.292C45.0981 164.477 52.1295 167.393 59.463 167.399V167.394Z" fill="#FDD301"/>
<path id="Path 534" d="M59.463 105.19C66.2966 105.191 72.9765 107.218 78.6581 111.015C84.3397 114.812 88.7678 120.208 91.3826 126.522C93.9973 132.836 94.6812 139.783 93.3479 146.485C92.0145 153.187 88.7237 159.344 83.8916 164.176C79.0596 169.008 72.9032 172.299 66.2009 173.632C59.4987 174.965 52.5516 174.281 46.238 171.667C39.9244 169.052 34.5279 164.624 30.7309 158.942C26.9339 153.261 24.9068 146.581 24.906 139.747C24.9153 130.585 28.559 121.8 35.0377 115.322C41.5164 108.843 50.3008 105.199 59.463 105.19V105.19ZM59.463 167.399C64.9326 167.398 70.279 165.775 74.8262 162.736C79.3735 159.696 82.9173 155.377 85.0096 150.323C87.1019 145.269 87.6487 139.709 86.5808 134.345C85.5129 128.98 82.8783 124.053 79.0102 120.186C75.1421 116.319 70.2141 113.686 64.8495 112.62C59.4849 111.553 53.9246 112.102 48.8717 114.195C43.8187 116.289 39.5001 119.834 36.4619 124.382C33.4237 128.931 31.8024 134.277 31.803 139.747C31.8112 147.08 34.7283 154.109 39.914 159.294C45.0997 164.478 52.1304 167.393 59.463 167.399V167.399Z" fill="#292929"/>
</g>
<g id="circle_4">
<path id="Path 535" d="M280.01 228.211C280.09 227.792 280.313 227.414 280.642 227.143C280.971 226.871 281.384 226.723 281.81 226.723H292.262C292.688 226.723 293.101 226.871 293.43 227.143C293.759 227.414 293.982 227.792 294.062 228.211L296.016 238.423H278.056L280.01 228.211Z" fill="#292929"/>
<path id="Path 536" d="M314.503 236.679C314.855 236.439 315.28 236.33 315.705 236.37C316.129 236.411 316.526 236.597 316.827 236.899L320.289 240.36L320.757 240.829L324.219 244.29C324.521 244.591 324.708 244.988 324.748 245.413C324.788 245.837 324.679 246.262 324.439 246.615L318.6 255.215L312.485 249.101L312.016 248.632L305.902 242.517L314.503 236.679Z" fill="#292929"/>
<path id="Path 537" d="M332.906 267.056C333.325 267.136 333.702 267.359 333.974 267.688C334.245 268.017 334.394 268.43 334.393 268.856V279.308C334.393 279.734 334.245 280.147 333.974 280.476C333.702 280.804 333.325 281.028 332.906 281.108L322.693 283.061V265.102L332.906 267.056Z" fill="#292929"/>
<path id="Path 538" d="M324.438 301.548C324.678 301.9 324.787 302.325 324.747 302.75C324.707 303.174 324.52 303.571 324.218 303.872L320.756 307.334L320.288 307.801L316.826 311.263C316.525 311.564 316.128 311.751 315.704 311.791C315.28 311.831 314.855 311.723 314.502 311.484L305.902 305.643L312.016 299.529L312.485 299.06L318.6 292.945L324.438 301.548Z" fill="#292929"/>
<path id="Path 539" d="M294.06 319.951C293.98 320.37 293.757 320.747 293.428 321.019C293.099 321.29 292.686 321.439 292.26 321.438H281.809C281.383 321.439 280.97 321.29 280.641 321.019C280.312 320.747 280.089 320.37 280.009 319.951L278.055 309.738H296.013L294.06 319.951Z" fill="#292929"/>
<path id="Path 540" d="M259.567 311.484C259.214 311.723 258.789 311.831 258.365 311.791C257.941 311.751 257.544 311.564 257.243 311.263L253.781 307.801L253.314 307.334L249.852 303.872C249.55 303.571 249.363 303.174 249.323 302.75C249.283 302.326 249.392 301.901 249.631 301.548L255.471 292.948L261.586 299.063L262.055 299.532L268.169 305.646L259.567 311.484Z" fill="#292929"/>
<path id="Path 541" d="M241.164 281.106C240.745 281.026 240.368 280.802 240.096 280.474C239.825 280.145 239.677 279.732 239.677 279.306V268.855C239.676 268.429 239.825 268.016 240.096 267.687C240.368 267.358 240.745 267.135 241.164 267.055L251.378 265.101V283.058L241.164 281.106Z" fill="#292929"/>
<path id="Path 542" d="M249.628 246.613C249.389 246.26 249.28 245.835 249.32 245.411C249.361 244.986 249.548 244.589 249.849 244.288L253.31 240.827L253.779 240.358L257.241 236.897C257.542 236.595 257.939 236.409 258.363 236.368C258.788 236.328 259.213 236.437 259.565 236.677L268.165 242.516L262.051 248.631L261.582 249.1L255.467 255.214L249.628 246.613Z" fill="#292929"/>
<path id="Path 543" d="M287.037 233.844C294.995 233.845 302.774 236.205 309.39 240.627C316.007 245.048 321.163 251.333 324.208 258.685C327.253 266.037 328.049 274.127 326.496 281.932C324.943 289.737 321.111 296.906 315.483 302.533C309.856 308.16 302.686 311.991 294.881 313.543C287.076 315.095 278.986 314.298 271.634 311.252C264.282 308.207 257.999 303.049 253.578 296.432C249.157 289.815 246.798 282.036 246.798 274.078C246.798 268.794 247.839 263.562 249.861 258.68C251.884 253.798 254.848 249.363 258.584 245.627C262.321 241.891 266.757 238.927 271.639 236.905C276.521 234.884 281.753 233.843 287.037 233.844ZM287.037 296.107C291.394 296.106 295.652 294.814 299.274 292.393C302.896 289.972 305.719 286.532 307.386 282.506C309.052 278.481 309.488 274.052 308.637 269.779C307.787 265.507 305.688 261.582 302.607 258.502C299.526 255.422 295.601 253.325 291.328 252.476C287.055 251.626 282.626 252.063 278.601 253.731C274.577 255.399 271.137 258.223 268.717 261.846C266.297 265.468 265.006 269.727 265.007 274.084C265.015 279.923 267.339 285.521 271.469 289.649C275.599 293.776 281.198 296.097 287.037 296.102V296.107Z" fill="#292929"/>
<path id="Path 544" d="M287.037 246.559C292.48 246.559 297.801 248.173 302.326 251.197C306.852 254.221 310.379 258.52 312.462 263.548C314.545 268.577 315.09 274.11 314.028 279.449C312.967 284.787 310.346 289.691 306.497 293.54C302.648 297.388 297.745 300.01 292.407 301.072C287.068 302.134 281.535 301.589 276.506 299.507C271.477 297.424 267.179 293.897 264.155 289.372C261.13 284.847 259.516 279.526 259.515 274.083C259.522 266.786 262.424 259.79 267.584 254.629C272.744 249.469 279.74 246.567 287.037 246.559V246.559ZM287.037 296.107C291.394 296.106 295.652 294.814 299.274 292.393C302.896 289.972 305.719 286.532 307.386 282.506C309.052 278.481 309.488 274.052 308.637 269.779C307.787 265.507 305.688 261.582 302.607 258.502C299.526 255.422 295.601 253.325 291.328 252.476C287.055 251.626 282.626 252.063 278.601 253.731C274.577 255.399 271.137 258.223 268.717 261.846C266.297 265.468 265.006 269.727 265.007 274.084C265.014 279.924 267.337 285.523 271.467 289.652C275.597 293.781 281.197 296.102 287.037 296.107V296.107Z" fill="#FDD301"/>
</g>
<g id="rotate_1">
<path id="Path 545" d="M65.805 267.853C65.805 272.481 67.1774 277.005 69.7486 280.853C72.3198 284.701 75.9744 287.701 80.2502 289.472C84.526 291.243 89.231 291.706 93.7701 290.803C98.3093 289.9 102.479 287.672 105.751 284.399C109.024 281.127 111.252 276.957 112.155 272.418C113.058 267.879 112.595 263.174 110.824 258.898C109.053 254.622 106.053 250.968 102.205 248.397C98.3572 245.825 93.8331 244.453 89.205 244.453C82.9989 244.453 77.0471 246.918 72.6587 251.307C68.2703 255.695 65.805 261.647 65.805 267.853V267.853Z" stroke="#292929" stroke-width="6" stroke-miterlimit="10"/>
<path id="Path 546" d="M89.198 254.986V267.855L81.298 275.755" stroke="white" stroke-width="2" stroke-miterlimit="10" stroke-linecap="round"/>
</g>
<g id="lamb">
<path id="Path 547" d="M199.634 315.664C201.867 315.625 204.06 316.25 205.937 317.46C207.815 318.669 209.29 320.409 210.178 322.458C211.065 324.507 211.325 326.773 210.923 328.97C210.521 331.166 209.476 333.194 207.921 334.796C201.785 341.224 203.83 344.812 203.83 344.812H195.438C195.438 344.812 197.483 341.224 191.347 334.796C189.792 333.194 188.747 331.166 188.345 328.97C187.943 326.773 188.203 324.507 189.09 322.458C189.978 320.409 191.453 318.669 193.331 317.46C195.208 316.25 197.401 315.625 199.634 315.664V315.664Z" fill="#F6E446"/>
<path id="Path 548" d="M204.741 343.787H193.784C193.484 343.787 193.195 343.906 192.983 344.119C192.77 344.331 192.651 344.62 192.651 344.92V344.92C192.651 345.221 192.77 345.509 192.983 345.721C193.195 345.934 193.484 346.053 193.784 346.053H204.741C205.041 346.053 205.329 345.933 205.542 345.721C205.754 345.508 205.874 345.22 205.874 344.92C205.874 344.62 205.755 344.331 205.542 344.119C205.33 343.906 205.041 343.787 204.741 343.787Z" fill="#292929"/>
<path id="Path 549" d="M204.741 346.052H193.784C193.635 346.052 193.488 346.081 193.351 346.138C193.213 346.195 193.088 346.278 192.983 346.383C192.878 346.488 192.795 346.613 192.738 346.75C192.681 346.887 192.651 347.034 192.651 347.183V347.183C192.651 347.484 192.77 347.772 192.983 347.984C193.195 348.197 193.484 348.316 193.784 348.316H204.741C205.041 348.316 205.33 348.197 205.542 347.984C205.755 347.772 205.874 347.484 205.874 347.183V347.183C205.874 347.034 205.844 346.887 205.787 346.75C205.73 346.613 205.647 346.488 205.542 346.383C205.437 346.278 205.312 346.195 205.174 346.138C205.037 346.081 204.89 346.052 204.741 346.052V346.052Z" fill="#292929"/>
<path id="Path 550" d="M204.741 348.316H193.784C193.484 348.316 193.195 348.435 192.983 348.648C192.77 348.86 192.651 349.149 192.651 349.449V349.449C192.651 349.749 192.771 350.037 192.983 350.25C193.196 350.462 193.484 350.582 193.784 350.582H204.741C205.041 350.582 205.329 350.462 205.542 350.25C205.754 350.037 205.874 349.749 205.874 349.449V349.449C205.874 349.149 205.755 348.86 205.542 348.648C205.33 348.435 205.041 348.316 204.741 348.316V348.316Z" fill="#292929"/>
<path id="Path 551" d="M203.706 326.816H195.573L199.554 331.491L203.706 326.816Z" stroke="#292929" stroke-miterlimit="10"/>
</g>
<path id="dolar" d="M62.5229 152.973C64.8754 152.866 67.142 152.34 69.3227 151.394V146.045C68.0766 146.678 66.7231 147.21 65.2622 147.64C63.8012 148.059 62.5175 148.268 61.4111 148.268C60.498 148.268 59.832 148.161 59.413 147.946C58.9834 147.72 58.7685 147.35 58.7685 146.834C58.7685 146.48 58.9243 146.179 59.2358 145.932C59.5366 145.685 60.0468 145.405 60.7666 145.094C61.4755 144.782 62.437 144.406 63.6508 143.966C65.0151 143.461 66.1162 142.897 66.9541 142.274C67.7919 141.64 68.4043 140.937 68.791 140.163C69.1669 139.379 69.3549 138.407 69.3549 137.247C69.3549 135.474 68.7856 134.089 67.6469 133.09C66.5083 132.09 64.8002 131.473 62.5229 131.236V129.029H59.1875V131.204C57.0498 131.322 54.896 131.849 52.726 132.783L54.6435 137.376C56.8886 136.366 58.9135 135.861 60.7182 135.861C61.5776 135.861 62.1845 135.968 62.539 136.183C62.8828 136.387 63.0546 136.694 63.0546 137.102C63.0546 137.456 62.9311 137.752 62.684 137.988C62.4262 138.214 61.9858 138.471 61.3627 138.761C60.7397 139.041 59.875 139.368 58.7685 139.744C56.5234 140.539 54.9121 141.447 53.9345 142.467C52.957 143.477 52.4682 144.782 52.4682 146.383C52.4682 148.188 53.0429 149.654 54.1923 150.782C55.331 151.91 56.996 152.608 59.1875 152.877V155.986H62.5229V152.973Z" fill="#FDD301"/>
<g id="cahrt">
<path id="Rectangle 24" d="M296.013 269.9H292.644V281.426H296.013V269.9Z" fill="#F6E446"/>
<path id="Rectangle 25" d="M289.78 274.867H286.41V281.425H289.78V274.867Z" fill="#D61313"/>
<path id="Rectangle 26" d="M283.546 262.498H280.177V281.425H283.546V262.498Z" fill="#FDD301"/>
</g>
<g id="translate_1 ">
<path id="Path 552" d="M136.599 18.797C136.599 18.797 119.652 -0.00299835 119.165 -0.00299835C118.678 -0.00299835 117.607 0.873999 119.165 3.016C120.723 5.158 123.065 9.396 123.065 9.396C123.065 9.396 120.533 12.561 121.118 14.022C121.703 15.483 130.662 22.691 130.662 22.691L136.604 19.574" fill="#FDA57D"/>
<g id="Group 200">
<path id="Path 553" d="M150.849 190.603C150.849 190.603 150.237 197.475 149.817 197.748C149.397 198.021 142.363 199.373 140.272 197.317L140.583 190.364L150.84 190.456" fill="#FDD301"/>
<g id="Group 199">
<path id="Path 554" d="M150.107 196.345C150.633 196.401 151.12 196.65 151.472 197.045C151.825 197.439 152.018 197.951 152.014 198.48C151.967 199.973 151.42 204.734 151.187 206.68C151.127 207.205 151.087 207.526 151.087 207.526C151.087 207.526 135.863 207.469 132.795 207.306C129.727 207.143 125.995 206.941 123.517 205.729C121.039 204.517 116.196 201.671 116.196 201.671C116.77 200.363 117.825 199.327 119.143 198.778C120.461 198.228 121.94 198.208 123.273 198.721C128.502 200.304 129.451 200.336 129.451 200.336L139.497 195.177C139.497 195.177 140.059 194.083 141.728 195.63C143.397 197.177 146.789 197.636 150.107 196.345Z" fill="#FDD301"/>
<path id="Path 555" d="M150.864 210.178L151.164 206.903C151.164 206.903 132.164 206.831 127.824 206.003C123.484 205.175 116.465 201.163 116.465 201.163C116.465 201.163 115.731 200.837 115.502 201.175C115.273 201.513 115.579 202.107 115.579 202.107C115.579 202.107 121.64 205.78 125.649 206.781C129.658 207.782 138.909 207.757 138.909 207.757L139.163 210.012L150.864 210.178Z" fill="#FDD301"/>
</g>
</g>
<path id="Path 556" d="M195.347 124.956C195.347 124.956 147.647 122.931 144.314 127.04C140.981 131.149 139.829 191.622 139.829 191.622L151.406 192.899L158.015 144.438C158.015 144.438 195.882 154.112 200.785 150.087C205.688 146.062 196.166 125.481 196.166 125.481" fill="#292929"/>
<path id="Path 557" d="M207.99 250.104L198.795 250.319L198.671 260.652C200.816 262.652 207.46 257.979 207.871 257.693C208.282 257.407 207.987 250.104 207.987 250.104" fill="#FDA57D"/>
<g id="Group 201">
<path id="Path 558" d="M207.892 257.762C208.418 257.704 208.946 257.844 209.374 258.155C209.802 258.466 210.098 258.925 210.205 259.443C210.482 260.909 210.959 265.678 211.147 267.636C211.195 268.162 211.228 268.485 211.228 268.485C211.228 268.485 196.339 271.659 193.308 272.155C190.277 272.651 186.582 273.255 183.908 272.591C181.234 271.927 175.894 270.179 175.894 270.179C176.177 268.78 176.987 267.544 178.158 266.728C179.328 265.911 180.768 265.577 182.178 265.794C187.627 266.23 188.563 266.056 188.563 266.056L197.278 258.884C197.278 258.884 197.594 257.697 199.556 258.851C201.518 260.005 204.921 259.729 207.892 257.762Z" fill="#FDD301"/>
<path id="Path 559" d="M211.572 271.119L211.172 267.853C211.172 267.853 192.593 271.82 188.172 271.942C183.751 272.064 176.044 269.626 176.044 269.626C176.044 269.626 175.256 269.461 175.107 269.84C174.958 270.219 175.378 270.74 175.378 270.74C175.378 270.74 182.078 273.04 186.212 273.163C190.346 273.286 199.378 271.301 199.378 271.301L200.106 273.449L211.572 271.119Z" fill="#FDD301"/>
</g>
<path id="Path 560" d="M216.212 138.051L210.306 191.288L209.744 252.551H196.303C196.303 252.551 192.164 219.946 191.138 189.766C190.162 161.033 192.951 128.306 193.445 124.316C194.46 116.141 216.212 138.051 216.212 138.051Z" fill="#292929"/>
<path id="Path 561" d="M194.483 64.727C194.483 64.727 202.993 69.755 206.207 66.952L206.538 62.107L206.729 59.335L206.929 56.318L197.989 55.998L197.539 57.129L196.987 58.507L194.483 64.727Z" fill="#FDA57D"/>
<path id="Path 562" d="M184.616 113.823C186.705 140.537 214.369 132.75 214.369 132.75C214.369 132.75 213.197 122.05 213.211 117.186C213.247 105.197 223.397 97.631 223.965 84.347C224.452 72.947 210.444 69.478 207.565 67.602C203.865 67.707 200.865 68.207 193.758 64.775C192.55 64.2869 191.255 64.053 189.953 64.088C188.623 64.8274 187.505 65.8945 186.704 67.188C177.059 80.426 183.863 104.232 184.616 113.823Z" fill="#FDD301"/>
<path id="Path 563" d="M193.763 64.773C191.197 71.4882 189.757 78.5809 189.501 85.765C189.257 90.4754 189.716 95.1959 190.863 99.771C191.248 96.671 192.891 92.571 195.006 88.325V88.317C198.738 81.147 202.932 74.2271 207.561 67.601C204.264 67.324 200.993 66.8039 197.773 66.045L197.755 66.052C196.388 65.748 195.052 65.3199 193.763 64.773V64.773Z" fill="#F3F3F3"/>
<path id="Path 564" d="M193.807 67.348L194.175 71.848L189.5 85.77C189.256 90.4794 189.715 95.1989 190.862 99.773C191.247 96.673 192.89 92.573 195.005 88.327V88.319L196.022 72.039L199.86 69.105L198.948 68.636L197.771 66.046L197.753 66.053L193.807 67.348Z" fill="#292929"/>
<path id="Path 565" d="M207.857 67.613L207.102 63.813C207.102 63.813 201.656 66.302 197.774 66.047L198.784 71.44C202.171 71.2995 205.393 69.9404 207.857 67.613V67.613Z" fill="#F7F7F7"/>
<path id="Path 566" d="M193.35 68.817L197.774 66.047C197.774 66.047 195.152 64.12 194.942 62.32L192.95 64.383C192.624 65.8669 192.763 67.4154 193.35 68.817V68.817Z" fill="#F7F7F7"/>
<path id="Path 567" d="M214.526 109.391L209.637 95.261C209.637 95.261 208.507 109.754 209.359 118.272C209.873 123.408 210.699 128.507 211.831 133.543L214.17 133.312C213.108 125.364 213.228 117.303 214.526 109.391V109.391Z" fill="#15294A"/>
<path id="Path 568" d="M197.228 56.994L196.987 58.509L196.975 58.542C196.975 58.542 196.593 60.876 199.923 62.293C201.923 63.138 204.658 62.647 206.537 62.11L206.727 59.338C205.443 60.298 199.034 57.738 197.538 57.133C197.333 57.044 197.228 56.994 197.228 56.994Z" fill="#F5AD8D"/>
<path id="Path 569" d="M192.178 55.237C192.484 57.973 203.385 61.497 206.085 61.064C207.179 60.64 208.086 59.8407 208.645 58.809C208.926 58.399 209.276 57.839 209.685 57.173C211.929 53.42 215.576 46.524 215.576 46.524C216.032 46.069 216.488 41.533 214.664 37.56C210.536 35.1217 206.253 32.9555 201.843 31.075C200.658 31.2514 199.568 31.8288 198.757 32.711C198.353 33.8768 198.009 35.0627 197.728 36.264C196.932 41.803 191.926 52.979 192.178 55.237Z" fill="#FDA57D"/>
<path id="Path 570" d="M196.61 42.603C196.61 42.603 192.169 46.842 192.169 47.303C192.169 48.253 196.069 49.577 196.069 49.577L196.61 42.603Z" fill="#FDA57D"/>
<path id="Path 571" d="M223.965 84.347L226.348 109.938L219.133 159.882L208.975 157.301C208.975 157.301 210.06 124.156 211.595 118.601C213.13 113.046 203.548 93.513 205.51 89.465C207.472 85.417 220.943 80.277 223.965 84.347Z" fill="#FDD301"/>
<path id="Path 572" d="M199.184 43.862C199.144 44.0096 199.146 44.1654 199.19 44.3118C199.234 44.4582 199.318 44.5895 199.433 44.6908C199.547 44.7922 199.687 44.8597 199.838 44.8857C199.989 44.9117 200.144 44.8951 200.285 44.838C200.427 44.7808 200.55 44.6852 200.64 44.5619C200.731 44.4387 200.785 44.2927 200.797 44.1403C200.809 43.9879 200.779 43.8352 200.709 43.6993C200.639 43.5634 200.532 43.4497 200.401 43.371C200.174 43.2798 199.921 43.28 199.694 43.3715C199.467 43.463 199.284 43.6388 199.184 43.862V43.862Z" fill="#563312"/>
<path id="Path 573" d="M187.347 108.503C187.347 108.503 190.991 140.664 198.519 149.031L215.799 151.553L208.384 122.493L187.347 108.503Z" fill="#FDD301"/>
<path id="Path 574" d="M182.729 100.756L180.229 124.536C180.229 124.536 187.509 125.28 190.929 129.454C194.349 133.628 190.929 128.817 190.929 128.817L182.729 100.756Z" fill="#FDD301"/>
<path id="Path 575" d="M185.094 83.811C185.094 83.811 158.094 59.568 154.894 55.044C151.694 50.52 128.365 22.425 128.365 22.425L135.517 16.351L191.847 64.786L185.094 83.811Z" fill="#FDD301"/>
<path id="Path 576" d="M197.453 37.729C197.453 37.729 199.239 38.449 201.115 39.177C203.173 39.977 209.148 42.632 209.148 42.632L207.722 49.913L208.599 50.322L210.137 48.198C210.531 47.8843 211.012 47.6991 211.514 47.6672C212.017 47.6354 212.517 47.7585 212.947 48.02C214.338 48.853 211.93 52.799 211.065 53.057C210.558 53.2104 210.018 53.2104 209.511 53.057L209.675 57.157L209.687 57.17C209.816 57.216 210.236 57.661 210.54 57.661C210.867 57.661 218.207 46.361 218.429 45.248C218.651 44.135 219.06 40.912 217.891 39.648C216.88 38.8568 215.8 38.1567 214.665 37.556C210.537 35.1177 206.254 32.9515 201.844 31.071C201.458 30.93 200.86 30.692 200.723 30.651C199.037 30.14 198.486 30.431 197.993 32.027C197.705 32.961 196.961 36.39 197.453 37.729Z" fill="#292929"/>
<path id="Path 577" d="M223.018 170.713L222.403 166.871C222.204 165.889 221.712 164.991 220.992 164.295C220.272 163.599 219.358 163.137 218.37 162.971L207.943 161.656C206.952 161.57 205.959 161.795 205.102 162.3C204.244 162.805 203.566 163.565 203.162 164.474L201.25 169.253" stroke="#FDD301" stroke-width="3" stroke-miterlimit="10"/>
<g id="Group 202">
<path id="Path 578" d="M185.359 168.78L182.885 198.3C182.845 198.752 182.895 199.208 183.033 199.64C183.17 200.073 183.393 200.474 183.687 200.82C183.98 201.166 184.34 201.45 184.745 201.656C185.15 201.861 185.591 201.985 186.044 202.018L230.435 205.36C231.147 205.41 231.858 205.243 232.474 204.881C233.09 204.52 233.582 203.98 233.885 203.333C234.062 202.967 234.17 202.572 234.204 202.167L235.136 191.61L236.66 174.332C236.735 173.412 236.45 172.498 235.865 171.784C235.279 171.069 234.439 170.611 233.522 170.504L189.097 165.704C188.904 165.677 188.708 165.674 188.514 165.695C187.705 165.742 186.94 166.081 186.36 166.648C185.78 167.215 185.425 167.972 185.359 168.78V168.78Z" fill="#131313"/>
</g>
<path id="Path 579" d="M219.181 159.254C219.231 160.903 219.191 162.553 219.059 164.197C218.872 164.467 216.945 167.922 215.774 168.222C214.603 168.522 207.995 166.271 207.797 165.422C207.816 163.617 207.973 161.815 208.267 160.034L206.386 159.685C206.386 159.685 207.725 157.123 208.898 157.227C210.071 157.331 219.181 159.254 219.181 159.254Z" fill="#FDA57D"/>
<path id="Path 580" d="M236.671 191.301L236.657 174.332L230.115 191.301L236.671 191.52" fill="#131313"/>
<path id="Path 581" d="M235.159 191.3L187.459 188.433C187.459 188.433 189.04 166.244 187.459 166.756C187.459 166.756 187.313 184.234 185.852 189.985L235.071 192.347L235.159 191.3Z" fill="#292929"/>
<path id="Path 582" d="M213.721 188.828C213.721 188.828 213.398 193.012 211.921 193.505C210.444 193.998 209.643 190.637 209.863 188.677C211.125 188.261 212.495 188.315 213.721 188.828V188.828Z" fill="#FDD301"/>
</g>
</g>
<defs>
<linearGradient id="paint0_linear_203:92" x1="300.791" y1="107.999" x2="300.791" y2="147.785" gradientUnits="userSpaceOnUse">
<stop stop-color="#FDD301" stop-opacity="0.188"/>
<stop offset="1" stop-color="#FDD301" stop-opacity="0"/>
</linearGradient>
<linearGradient id="paint1_linear_203:92" x1="245.526" y1="198.278" x2="245.526" y2="232.467" gradientUnits="userSpaceOnUse">
<stop stop-color="#FDD301" stop-opacity="0.188"/>
<stop offset="1" stop-color="#FDD301" stop-opacity="0"/>
</linearGradient>
<linearGradient id="paint2_linear_203:92" x1="72.917" y1="21.2253" x2="72.917" y2="61.011" gradientUnits="userSpaceOnUse">
<stop stop-color="#FDD301" stop-opacity="0.188"/>
<stop offset="1" stop-color="#FDD301" stop-opacity="0"/>
</linearGradient>
</defs>
</svg>
