<svg xmlns="http://www.w3.org/2000/svg" width="89.957" height="100" viewBox="0 0 89.957 100">
  <g id="Page-1" transform="translate(0 0)">
    <g id="_059---Idea" data-name="059---Idea">
      <g id="Icons" transform="translate(14.993 1.637)">
        <path id="Path" d="M53.441,48.275a44.978,44.978,0,0,0-9.979,24.388H16.509a45.133,45.133,0,0,0-9.979-24.4A25.988,25.988,0,0,1,0,31.016a29.986,29.986,0,0,1,59.771-3.532A26.581,26.581,0,0,1,53.441,48.275Z" transform="translate(0 -0.954)" fill="#fdd301" fill-rule="evenodd"/>
        <path id="Path-2" data-name="Path" d="M48.8,27.449a30.1,30.1,0,0,0-26.4-26.271,30.574,30.574,0,0,0-5.915-.052c.308.025.608.018.918.052A30.1,30.1,0,0,1,43.8,27.449a26.581,26.581,0,0,1-6.33,20.79,44.978,44.978,0,0,0-9.979,24.388h5a44.978,44.978,0,0,1,9.979-24.388,26.581,26.581,0,0,0,6.33-20.79Z" transform="translate(10.973 -0.918)" fill="#90ac00" fill-rule="evenodd"/>
        <path id="Path-3" data-name="Path" d="M36.864,44c-.1,1.1-.15,2.2-.15,3.315V57.327a3.342,3.342,0,0,1-3.332,3.332H13.392a3.342,3.342,0,0,1-3.332-3.332v-10c0-1.116-.05-2.232-.15-3.332Z" transform="translate(6.599 27.709)" fill="#fff" fill-rule="evenodd"/>
        <path id="Path-4" data-name="Path" d="M24.482,44c-.1,1.1-.15,2.2-.15,3.315V57.327A3.342,3.342,0,0,1,21,60.659h5a3.342,3.342,0,0,0,3.332-3.332V47.315c0-1.116.05-2.216.15-3.315Z" transform="translate(13.983 27.709)" fill="#90ac00" fill-rule="evenodd"/>
        <path id="Path-5" data-name="Path" d="M12.09,54a9.984,9.984,0,0,0,19.691,0Z" transform="translate(8.05 34.368)" fill="#fdd301" fill-rule="evenodd"/>
      </g>
      <g id="Icons_copy">
        <path id="Shape" d="M71.088,28.942A31.651,31.651,0,0,0,8,32.67c0,6.762,2.061,12.229,6.89,18.285a43.231,43.231,0,0,1,9.62,23.362c.093,1.1.148,2.212.148,3.332v10a5,5,0,0,0,3.783,4.831,11.643,11.643,0,0,0,22.419,0,5,5,0,0,0,3.783-4.831V77.624c0-1.1.055-2.2.147-3.293v-.013A43.146,43.146,0,0,1,64.4,50.972a28.3,28.3,0,0,0,6.685-22.029ZM51.313,77.624V80.98H27.99V77.649c0-.558-.052-1.109-.073-1.666H51.386C51.364,76.531,51.313,77.076,51.313,77.624ZM39.651,97.639a8.258,8.258,0,0,1-7.6-5H47.254A8.258,8.258,0,0,1,39.651,97.639Zm11.661-10a1.666,1.666,0,0,1-1.666,1.666H29.656a1.666,1.666,0,0,1-1.666-1.666V84.312H51.313Zm.333-14.993H27.657A46.741,46.741,0,0,0,17.5,48.876c-4.378-5.487-6.164-10.183-6.164-16.206a28.371,28.371,0,0,1,9.422-21.092,28.085,28.085,0,0,1,22.1-7.053,28.383,28.383,0,0,1,24.93,24.8,24.863,24.863,0,0,1-5.972,19.562A46.658,46.658,0,0,0,51.646,72.651Z" transform="translate(5.327 -0.972)" fill="#131313"/>
        <path id="Path-6" data-name="Path" d="M47.577,13.417,25.421,32.408l-5.574-5.572a1.666,1.666,0,1,0-2.356,2.356l6.663,6.663a1.666,1.666,0,0,0,2.261.087l23.322-19.99a1.666,1.666,0,1,0-2.166-2.529Z" transform="translate(11.308 7.024)" fill-rule="evenodd"/>
        <path id="Path-7" data-name="Path" d="M0,19.666a1.666,1.666,0,0,0,1.666,1.666h5a1.666,1.666,0,1,0,0-3.332h-5A1.666,1.666,0,0,0,0,19.666Z" transform="translate(0 10.367)" fill="#131313" fill-rule="evenodd"/>
        <path id="Path-8" data-name="Path" d="M49,19.666a1.666,1.666,0,0,0,1.666,1.666h5a1.666,1.666,0,1,0,0-3.332h-5A1.666,1.666,0,0,0,49,19.666Z" transform="translate(32.627 10.367)" fill="#131313" fill-rule="evenodd"/>
        <path id="Path-9" data-name="Path" d="M8.248,28.225l-4.331,2.5A1.666,1.666,0,1,0,5.583,33.61l4.331-2.5a1.666,1.666,0,1,0-1.666-2.885Z" transform="translate(2.047 17.023)" fill="#131313" fill-rule="evenodd"/>
        <path id="Path-10" data-name="Path" d="M51.487,6.721l-4.331,2.5a1.666,1.666,0,1,0,1.666,2.885l4.331-2.5a1.666,1.666,0,0,0-1.666-2.885Z" transform="translate(30.838 2.712)" fill="#131313" fill-rule="evenodd"/>
        <path id="Path-11" data-name="Path" d="M47.157,31.111l4.331,2.5a1.666,1.666,0,0,0,1.666-2.885l-4.331-2.5a1.666,1.666,0,1,0-1.666,2.885Z" transform="translate(30.839 17.023)" fill="#131313" fill-rule="evenodd"/>
        <path id="Path-12" data-name="Path" d="M9.914,9.224l-4.331-2.5A1.666,1.666,0,1,0,3.917,9.611l4.331,2.5A1.666,1.666,0,0,0,9.914,9.224Z" transform="translate(2.047 2.707)" fill="#131313" fill-rule="evenodd"/>
      </g>
    </g>
  </g>
</svg>
