<svg xmlns="http://www.w3.org/2000/svg" width="83.332" height="100" viewBox="0 0 83.332 100">
  <g id="Page-1" transform="translate(0 0)">
    <g id="_007---Badge" data-name="007---Badge">
      <g id="Icons" transform="translate(1.663 1.663)">
        <path id="Path" d="M80.005,40.019c0,4.786-7.334,8.287-9.2,12.773-1.783,4.319,1,12.006-2.517,15.524a8.447,8.447,0,0,1-5.95,1.9c-3.334.1-7.034-.434-9.567.617-3.15,1.317-5.817,5.319-8.767,7.6a6.682,6.682,0,0,1-4,1.6,6.682,6.682,0,0,1-4-1.6c-2.95-2.284-5.617-6.286-8.767-7.6-2.533-1.05-6.234-.517-9.567-.617a8.447,8.447,0,0,1-5.95-1.9C8.2,64.8,10.984,57.11,9.2,52.791,7.334,48.306,0,44.8,0,40.019s7.334-8.287,9.2-12.773c1.783-4.319-1-12.006,2.517-15.524s11.2-.734,15.518-2.518C31.719,7.337,35.219,0,40,0S48.286,7.337,52.77,9.2c4.317,1.784,12-1,15.518,2.518s.733,11.205,2.517,15.524C72.671,31.731,80.005,35.233,80.005,40.019Z" transform="translate(0 0)" fill="#fdd301" fill-rule="evenodd"/>
        <g id="Group_183" data-name="Group 183" transform="translate(8.39 0)">
          <path id="Path-2" data-name="Path" d="M32.747,9.182c2.143.885,5.118.644,8,.607a9.66,9.66,0,0,1-3.009-.607C33.262,7.319,29.769,0,25,0a5.438,5.438,0,0,0-2.5.665c3.583,1.83,6.587,6.986,10.247,8.517Z" transform="translate(6.625 0)" fill="#90ac00" fill-rule="evenodd"/>
          <path id="Path-3" data-name="Path" d="M10.089,42.088c.279.018.562.032.85.04.5.015,1.02.013,1.537.008-.767-.053-1.569-.06-2.387-.048Z" transform="translate(-1.697 28.059)" fill="#bb193b" fill-rule="evenodd"/>
          <path id="Path-4" data-name="Path" d="M12.464,5.885c-.793,0-1.579,0-2.34.05C10.927,5.947,11.713,5.937,12.464,5.885Z" transform="translate(-1.673 3.904)" fill="#bb193b" fill-rule="evenodd"/>
          <path id="Path-5" data-name="Path" d="M47.525,23.279c-1.78-4.308,1-11.977-2.512-15.487-2.3-2.3-6.383-1.9-10.137-1.855a7.722,7.722,0,0,1,5.147,1.855c3.51,3.51.732,11.178,2.512,15.487,1.863,4.475,9.182,7.968,9.182,12.742S44.4,44.288,42.534,48.763c-1.78,4.308,1,11.977-2.512,15.487a7.652,7.652,0,0,1-5.088,1.856c1.374.02,2.786.08,4.14.04a8.432,8.432,0,0,0,5.938-1.9c3.51-3.51.732-11.178,2.512-15.487,1.863-4.475,9.182-7.968,9.182-12.742S49.388,27.753,47.525,23.279Z" transform="translate(14.908 3.902)" fill="#90ac00" fill-rule="evenodd"/>
          <path id="Path-6" data-name="Path" d="M32.747,42.745C29.6,44.059,26.941,48.051,24,50.33a9.789,9.789,0,0,1-1.5.932,5.489,5.489,0,0,0,2.5.665,6.67,6.67,0,0,0,3.992-1.6c2.944-2.279,5.606-6.271,8.75-7.585a9.63,9.63,0,0,1,3.021-.607c-2.886-.035-5.867-.281-8.011.607Z" transform="translate(6.625 28.073)" fill="#90ac00" fill-rule="evenodd"/>
          <path id="Path-7" data-name="Path" d="M52,60.228l-7.935-1.381a1.673,1.673,0,0,0-1.846,1.065L39.441,67.48a1.675,1.675,0,0,1-3.011.25L26.4,50.33c2.944-2.279,5.606-6.271,8.75-7.585,2.528-1.048,6.221-.516,9.548-.615l9.016,15.62A1.663,1.663,0,0,1,52,60.228Z" transform="translate(9.285 28.11)" fill="#fdd301" fill-rule="evenodd"/>
          <path id="Path-8" data-name="Path" d="M32.584,50.33,22.554,67.73a1.675,1.675,0,0,1-3.011-.25l-2.778-7.569a1.673,1.673,0,0,0-1.846-1.065L6.984,60.228A1.663,1.663,0,0,1,5.27,57.749l9.016-15.62c3.327.1,7.02-.432,9.548.615,3.144,1.314,5.805,5.306,8.75,7.585Z" transform="translate(-5.044 28.11)" fill="#fdd301" fill-rule="evenodd"/>
        </g>
        <ellipse id="Oval" cx="25.08" cy="25" rx="25.08" ry="25" transform="translate(15.337 15.4)" fill="#fff"/>
        <path id="Path-9" data-name="Path" d="M25,9c-.842,0-1.675.045-2.5.126a24.952,24.952,0,0,1,0,49.65c.82.082,1.653.126,2.5.126A24.952,24.952,0,1,0,25,9Z" transform="translate(15.042 6.033)" fill="#90ac00" fill-rule="evenodd"/>
      </g>
      <g id="Icons_copy">
        <path id="Shape" d="M5.3,50.223a17.333,17.333,0,0,1,4.018,4.842,16.333,16.333,0,0,1,.512,6c-.08,3.527-.167,7.525,2.368,10.068a8.048,8.048,0,0,0,4.4,2.11L8.863,86.657a3.333,3.333,0,0,0,3.44,4.972l7.948-1.385,2.79,7.6a3.315,3.315,0,0,0,2.833,2.143c.1.008.2.013.293.013a3.333,3.333,0,0,0,2.888-1.667l9.18-15.93a6.768,6.768,0,0,0,6.848,0l9.19,15.943A3.333,3.333,0,0,0,57.166,100a2.173,2.173,0,0,0,.293-.013A3.323,3.323,0,0,0,60.3,97.818l2.782-7.582,7.96,1.385a3.333,3.333,0,0,0,3.432-4.957L66.727,73.24a8.062,8.062,0,0,0,4.4-2.112c2.542-2.543,2.448-6.542,2.368-10.068a16.333,16.333,0,0,1,.512-6,17.333,17.333,0,0,1,4.018-4.842c2.608-2.513,5.3-5.117,5.3-8.553s-2.7-6.04-5.3-8.557a17.333,17.333,0,0,1-4.018-4.842,16.333,16.333,0,0,1-.512-6c.08-3.527.167-7.525-2.368-10.068S64.586,9.757,61.061,9.833a16.29,16.29,0,0,1-6-.512A17.31,17.31,0,0,1,50.228,5.3C47.706,2.7,45.1,0,41.666,0s-6.038,2.7-8.557,5.3a17.333,17.333,0,0,1-4.833,4.02,16.411,16.411,0,0,1-6,.512c-3.522-.078-7.525-.167-10.068,2.368S9.76,18.745,9.84,22.271a16.333,16.333,0,0,1-.512,6A17.333,17.333,0,0,1,5.31,33.113C2.7,35.626,0,38.229,0,41.666s2.7,6.04,5.3,8.557ZM26.166,96.673l-2.788-7.6a3.347,3.347,0,0,0-3.693-2.118l-7.942,1.375L20.291,73.52c.667,0,1.333-.008,1.98-.023a16.388,16.388,0,0,1,6,.512A17.31,17.31,0,0,1,33.1,78.027c.793.822,1.6,1.642,2.43,2.393ZM71.605,88.34l-7.962-1.385a3.353,3.353,0,0,0-3.688,2.135l-2.79,7.575L47.8,80.419c.833-.75,1.637-1.57,2.428-2.39a17.333,17.333,0,0,1,4.833-4.02,16.333,16.333,0,0,1,6-.512c.647.015,1.313.025,1.98.025ZM7.618,35.508A19.388,19.388,0,0,0,12.4,29.543a18.581,18.581,0,0,0,.765-7.348c-.068-3-.142-6.1,1.393-7.635s4.627-1.465,7.635-1.392a18.726,18.726,0,0,0,7.35-.767,19.426,19.426,0,0,0,5.963-4.783c2.128-2.2,4.138-4.285,6.158-4.285S45.7,5.415,47.833,7.62A19.406,19.406,0,0,0,53.8,12.4a18.68,18.68,0,0,0,7.348.767c3-.067,6.1-.142,7.635,1.392s1.462,4.637,1.393,7.635a18.581,18.581,0,0,0,.765,7.348,19.388,19.388,0,0,0,4.783,5.965C77.917,37.636,80,39.646,80,41.666s-2.082,4.03-4.285,6.167A19.388,19.388,0,0,0,70.931,53.8a18.582,18.582,0,0,0-.765,7.348c.068,3,.142,6.1-1.393,7.635s-4.628,1.462-7.635,1.392a18.666,18.666,0,0,0-7.35.767,19.426,19.426,0,0,0-5.963,4.783C45.7,77.917,43.686,80,41.666,80s-4.032-2.082-6.158-4.287a19.406,19.406,0,0,0-5.965-4.782,14.278,14.278,0,0,0-5.4-.8c-.647,0-1.3.015-1.943.03-3,.073-6.1.142-7.635-1.392s-1.462-4.637-1.393-7.635a18.581,18.581,0,0,0-.765-7.348,19.388,19.388,0,0,0-4.783-5.957c-2.2-2.137-4.285-4.147-4.285-6.167s2.082-4.03,4.285-6.158Z" transform="translate(0 0)" fill="#131313"/>
        <path id="Path-10" data-name="Path" d="M22.134,41.818a1.663,1.663,0,0,0,2.257.086L47.679,21.943a1.663,1.663,0,1,0-2.162-2.525L23.393,38.381l-5.566-5.564a1.663,1.663,0,0,0-2.352,2.352Z" transform="translate(10.037 12.669)" fill="#131313" fill-rule="evenodd"/>
        <path id="Shape-2" data-name="Shape" d="M35.695,62.23A26.615,26.615,0,1,0,9,35.615,26.655,26.655,0,0,0,35.695,62.23Zm0-49.9A23.288,23.288,0,1,1,12.337,35.615,23.323,23.323,0,0,1,35.695,12.327Z" transform="translate(5.971 5.971)" fill="#131313"/>
      </g>
    </g>
  </g>
</svg>
