<svg id="_008---Male-Customer-Advisor" data-name="008---Male-Customer-Advisor" xmlns="http://www.w3.org/2000/svg" width="86.636" height="100" viewBox="0 0 86.636 100">
  <g id="Layer_3" transform="translate(1.667 1.667)">
    <path id="Shape" d="M50.548,24.665a6.956,6.956,0,0,0-.167-1c-1.533-6.8-4.567-8.65-4.567-8.65-5.517-2.633-18.95-2.033-23.633-1.733A4.775,4.775,0,0,0,19.048,14.6a20.648,20.648,0,0,0-4.533,8.6,14.7,14.7,0,0,0-.333,1.483A12.253,12.253,0,0,0,14.065,28c.4,4.133,1.183,5.767,1.183,8.733,0,.383-.017.767-.017,1.15-.017,1.183-.1,2.317-.1,3.45A10.743,10.743,0,0,0,19,50.048a1.834,1.834,0,0,0,.183.167c5.267,4.733,5.267,9.45,10.517,9.45h5.267c5.25,0,5.25-4.717,10.517-9.45a1.835,1.835,0,0,0,.183-.167,10.743,10.743,0,0,0,3.867-8.717c0-1.133-.083-2.267-.1-3.45,0-.383-.017-.767-.017-1.15,0-3.033.817-4.683,1.233-9a12.606,12.606,0,0,0-.1-3.067Zm-13.217,25a1.667,1.667,0,0,1-1.667,1.667H29a1.667,1.667,0,0,1-1.667-1.667V46.331A1.667,1.667,0,0,1,29,44.665h6.667a1.667,1.667,0,0,1,1.667,1.667Z" transform="translate(9.319 8.669)" fill="#fdd301"/>
    <path id="Shape-2" data-name="Shape" d="M44.941,24.664a6.956,6.956,0,0,0-.167-1c-1.533-6.8-4.567-8.65-4.567-8.65-3.928-1.875-11.857-2.108-17.795-1.982,4.833.113,9.9.6,12.795,1.982,0,0,3.033,1.85,4.567,8.65a6.954,6.954,0,0,1,.167,1,12.607,12.607,0,0,1,.1,3.067c-.417,4.317-1.233,5.967-1.233,9,0,.383.017.767.017,1.15.017,1.183.1,2.317.1,3.45a10.743,10.743,0,0,1-3.867,8.717,1.833,1.833,0,0,1-.183.167c-5.267,4.733-5.267,9.45-10.517,9.45h5c5.25,0,5.25-4.717,10.517-9.45a1.835,1.835,0,0,0,.183-.167,10.743,10.743,0,0,0,3.867-8.717c0-1.133-.083-2.267-.1-3.45,0-.383-.017-.767-.017-1.15,0-3.033.817-4.683,1.233-9a12.606,12.606,0,0,0-.1-3.067Z" transform="translate(14.926 8.669)" fill="#90ac00"/>
    <path id="Shape-3" data-name="Shape" d="M83.31,60.333v6.65a1.64,1.64,0,0,1-1.65,1.683h-80A1.64,1.64,0,0,1,.01,66.983v-6.65c.5-10.167,5.717-11.667,5.717-11.667L28.327,42s1.667,6.667,13.333,6.667S54.994,42,54.994,42l22.6,6.667S82.81,50.167,83.31,60.333Z" transform="translate(-0.01 28)" fill="#fdd301"/>
    <path id="Shape-4" data-name="Shape" d="M55.838,48.667,33.238,42a5.843,5.843,0,0,1-.595,1.3l18.195,5.367s5.217,1.5,5.717,11.667v6.65a1.64,1.64,0,0,1-1.65,1.683h5a1.64,1.64,0,0,0,1.65-1.683v-6.65C61.055,50.167,55.838,48.667,55.838,48.667Z" transform="translate(21.746 28)" fill="#90ac00"/>
    <path id="Shape-5" data-name="Shape" d="M44.833,23.333v10A3.343,3.343,0,0,1,41.5,36.667H35.367c0-1.133-.083-2.267-.1-3.45,0-.383-.017-.767-.017-1.15,0-3.033.817-4.683,1.233-9a12.606,12.606,0,0,0-.1-3.067H41.5A3.343,3.343,0,0,1,44.833,23.333Z" transform="translate(23.484 13.333)" fill="#fdd301"/>
    <path id="Shape-6" data-name="Shape" d="M41,20H36a3.343,3.343,0,0,1,3.333,3.333v10A3.343,3.343,0,0,1,36,36.667h5a3.343,3.343,0,0,0,3.333-3.333v-10A3.343,3.343,0,0,0,41,20Z" transform="translate(23.984 13.333)" fill="#90ac00"/>
    <path id="Shape-7" data-name="Shape" d="M18.583,32.067c0,.383-.017.767-.017,1.15-.017,1.183-.1,2.317-.1,3.45H12.333A3.343,3.343,0,0,1,9,33.333v-10A3.343,3.343,0,0,1,12.333,20H17.45l.067.017a12.253,12.253,0,0,0-.117,3.317c.4,4.133,1.183,5.767,1.183,8.733Z" transform="translate(5.984 13.333)" fill="#fdd301"/>
    <rect id="Rectangle-path" width="10" height="7" rx="1" transform="translate(36.333 53.333)" fill="#fff"/>
    <path id="Shape-8" data-name="Shape" d="M57.667,22.333v8.333H52.55a6.956,6.956,0,0,0-.167-1c-1.533-6.8-4.567-8.65-4.567-8.65-5.517-2.633-18.95-2.033-23.633-1.733A4.775,4.775,0,0,0,21.05,20.6a20.648,20.648,0,0,0-4.533,8.6,14.7,14.7,0,0,0-.333,1.483l-.067-.017H11V22.333S14.333,4,34.333,4,57.667,22.333,57.667,22.333Z" transform="translate(7.317 2.667)" fill="#fff"/>
    <path id="Shape-9" data-name="Shape" d="M26,4c-.868,0-1.693.047-2.5.112C41.272,5.568,44.333,22.333,44.333,22.333v8.333h5V22.333S46,4,26,4Z" transform="translate(15.651 2.667)" fill="#fff"/>
    <path id="Shape-10" data-name="Shape" d="M57.667,21.667V25S54.333,6.667,34.333,6.667,11,25,11,25V21.667C11,8.783,21.45,0,34.333,0S57.667,8.783,57.667,21.667Z" transform="translate(7.317)" fill="#fdd301"/>
  </g>
  <path id="Shape-11" data-name="Shape" d="M3.327,100h80a3.3,3.3,0,0,0,3.318-3.35V89.918C86.092,78.69,79.979,76.8,79.732,76.735l-21.4-6.313V61.088a11.92,11.92,0,0,0,3.792-7.755H66.66a5,5,0,0,0,5-5v-10a5,5,0,0,0-3.333-4.693V23.333C68.327,10.032,57.58,0,43.327,0s-25,10.032-25,23.333V33.64a5,5,0,0,0-3.333,4.693v10a5,5,0,0,0,3.333,4.693V55a6.667,6.667,0,0,0,6.667,6.667h3.333v8.755L6.935,76.732C6.675,76.8.565,78.69.01,90v6.622A3.307,3.307,0,0,0,3.327,100ZM21.66,26.833A21.167,21.167,0,0,1,43.327,10,21.245,21.245,0,0,1,64.994,26.833v6.5h-2.06c-1.667-7.025-4.887-9.182-5.255-9.407C53.04,21.143,38.524,21.6,33.085,21.952a6.407,6.407,0,0,0-4.215,1.8,22.075,22.075,0,0,0-5.023,9.583H21.66Zm10,37.8c2.727,3.533,4.01,7.033,9.037,7.033,7.555,0,8.912.693,12.842-5.022.442-.642.922-1.323,1.457-2.02V71.4c-2.68,7.092-20.712,7.032-23.333,0Zm23.7-5.313c-5.2,4.668-5.352,9.013-9.4,9.013-7.2,0-7.15.7-10.093-3.577-.635-.923-1.385-1.982-2.315-3.09h3.577a3.322,3.322,0,0,0,2.87,1.667H46.66A3.333,3.333,0,0,0,49.994,60V56.667a3.333,3.333,0,0,0-3.333-3.333H39.994a3.333,3.333,0,0,0-3.333,3.333v1.667H30.327c-2.667-2.9-2.6-5.46-2.483-8.617a24.115,24.115,0,0,0-.478-7.28c-.645-3.365-1.05-5.667-.25-8.438a18.647,18.647,0,0,1,4.118-7.892,3.138,3.138,0,0,1,2.057-.833c5.42-.348,17.707-.76,22.683,1.517,1.98,1.537,4.407,6.865,4.008,11.1-.383,4.022-1.228,6-1.228,9.167,0,5.18,1.03,8.272-3.395,12.25ZM39.994,60V56.667H46.66V60ZM68.327,48.333A1.667,1.667,0,0,1,66.66,50h-4.5c-.255-7.145.528-5.333,1.137-11.782a14.152,14.152,0,0,0,.03-1.552H66.66a1.667,1.667,0,0,1,1.667,1.667ZM63.867,16.64c-3.573-4.973-9.827-9.973-20.54-9.973s-16.967,5-20.54,9.973C28.994-1.158,57.66-1.133,63.867,16.64ZM18.327,38.333a1.667,1.667,0,0,1,1.667-1.667h3.355a31.028,31.028,0,0,0,.738,6.4A22.2,22.2,0,0,1,24.494,50h-4.5a1.667,1.667,0,0,1-1.667-1.667ZM21.66,55V53.333h2.875a11.417,11.417,0,0,0,1.605,5H24.994A3.333,3.333,0,0,1,21.66,55ZM7.869,79.932l21.207-6.257C30.4,76,34.012,80,43.327,80s12.932-4,14.252-6.333l21.185,6.25c.167.057,4.13,1.5,4.555,10.075v6.675H3.344V90.082c.427-8.665,4.38-10.1,4.525-10.15Z" transform="translate(-0.01)" fill="#131313"/>
</svg>
